<svg width="118" height="28" viewBox="0 0 118 28" fill="none" xmlns="http://www.w3.org/2000/svg">
<path d="M0.203541 13.5362C0.203541 12.7768 0.767849 12.1492 1.5 12.0499L1.70354 12.0362L112.869 12.0499L103.343 2.56284C102.756 1.97832 102.754 1.02857 103.338 0.441528C103.869 -0.0921502 104.703 -0.142358 105.291 0.292086L105.459 0.43696L117.559 12.485C117.637 12.562 117.704 12.6454 117.761 12.7335C117.777 12.76 117.793 12.7871 117.809 12.8147C117.823 12.8385 117.836 12.8631 117.848 12.888C117.865 12.9242 117.882 12.9616 117.897 12.9998C117.909 13.0292 117.919 13.0579 117.929 13.0867C117.94 13.1225 117.95 13.1606 117.96 13.1994C117.967 13.2264 117.972 13.2524 117.977 13.2785C117.983 13.3174 117.989 13.3576 117.993 13.3983C117.997 13.4293 117.999 13.4601 118 13.4909C118 13.5095 118.001 13.5291 118.001 13.5487L118 13.6068C117.999 13.6362 117.997 13.6657 117.994 13.695L118.001 13.5487C118.001 13.6434 117.992 13.736 117.975 13.8258C117.971 13.8472 117.966 13.8692 117.961 13.8911C117.951 13.9363 117.938 13.9798 117.924 14.0224C117.917 14.0436 117.909 14.0662 117.9 14.0887C117.883 14.1338 117.864 14.1768 117.843 14.2188C117.833 14.2385 117.822 14.2591 117.811 14.2795C117.792 14.3128 117.773 14.3445 117.752 14.3754C117.738 14.3972 117.722 14.4199 117.705 14.4423L117.692 14.4596C117.652 14.5124 117.608 14.5624 117.561 14.6094L117.559 14.6108L105.459 26.6608C104.872 27.2453 103.923 27.2434 103.338 26.6564C102.807 26.1227 102.76 25.2893 103.197 24.703L103.343 24.535L112.865 15.0499L1.70354 15.0362C0.875114 15.0362 0.203541 14.3646 0.203541 13.5362Z" fill="#eff4cd"/>
</svg>
