<svg width="450" height="169" viewBox="0 0 450 169" fill="none" xmlns="http://www.w3.org/2000/svg">
<path d="M11.8883 135V40.434H53.6324C60.1169 40.434 65.6108 41.3797 70.1139 43.271C74.6171 45.0723 77.9944 47.7291 80.246 51.2416C82.5876 54.6639 83.7584 58.8068 83.7584 63.6702C83.7584 69.074 82.4075 73.6222 79.7056 77.3148C77.0938 81.0073 73.2661 83.4841 68.2226 84.7449L67.9524 82.1781C72.1854 83.0788 75.8329 84.6549 78.8951 86.9064C82.0472 89.158 84.4789 91.95 86.1901 95.2823C87.9013 98.5246 88.7569 102.217 88.7569 106.36C88.7569 111.133 87.9464 115.321 86.3252 118.924C84.7041 122.436 82.3625 125.408 79.3003 127.84C76.2382 130.272 72.6357 132.073 68.4928 133.244C64.44 134.415 59.9368 135 54.9834 135H11.8883ZM33.5034 115.817H54.1728C56.6946 115.817 58.811 115.411 60.5222 114.601C62.3235 113.79 63.7195 112.619 64.7102 111.088C65.7008 109.467 66.1962 107.531 66.1962 105.279C66.1962 103.208 65.6558 101.452 64.5751 100.011C63.5844 98.5696 62.1434 97.4888 60.252 96.7683C58.3607 95.9578 56.1091 95.5525 53.4973 95.5525H33.5034V115.817ZM33.5034 78.3955H50.3902C52.7318 78.3955 54.7132 78.0353 56.3343 77.3148C58.0455 76.5042 59.3064 75.4234 60.1169 74.0725C61.0176 72.6315 61.4679 70.9203 61.4679 68.9389C61.4679 66.0569 60.4772 63.8053 58.4958 62.1842C56.5144 60.473 53.5424 59.6174 49.5796 59.6174H33.5034V78.3955ZM121.338 136.486C116.024 136.486 111.476 135.36 107.693 133.109C104.001 130.767 101.119 127.435 99.0473 123.112C97.0659 118.789 96.0752 113.61 96.0752 107.576V63.2649H117.825V104.604C117.825 107.486 118.276 109.963 119.176 112.034C120.077 114.105 121.428 115.727 123.229 116.897C125.03 117.978 127.192 118.518 129.714 118.518C131.605 118.518 133.316 118.203 134.847 117.573C136.468 116.942 137.819 116.087 138.9 115.006C140.071 113.835 140.972 112.529 141.602 111.088C142.232 109.557 142.548 107.891 142.548 106.09V63.2649H164.298V135H143.899L142.953 120.275L147.006 118.654C145.925 122.076 144.124 125.138 141.602 127.84C139.08 130.452 136.063 132.568 132.551 134.189C129.038 135.721 125.301 136.486 121.338 136.486ZM173.295 135V122.571L211.392 73.6672V80.8272H173.295V63.2649H232.737V76.234L196.667 123.652L196.126 117.438H233.953V135H173.295ZM248.922 135V45.1623H270.537V135H248.922ZM236.223 82.1781V63.2649H284.451V82.1781H236.223ZM322.893 136.351C314.968 136.351 308.078 134.775 302.224 131.623C296.37 128.38 291.822 124.012 288.579 118.518C285.337 112.935 283.716 106.585 283.716 99.4702C283.716 93.9764 284.616 88.9329 286.418 84.3397C288.219 79.7464 290.741 75.7837 293.983 72.4514C297.225 69.029 301.053 66.4171 305.466 64.6159C309.969 62.7246 314.878 61.7789 320.191 61.7789C325.235 61.7789 329.828 62.6795 333.971 64.4808C338.204 66.2821 341.851 68.8038 344.914 72.0461C347.976 75.2883 350.317 79.116 351.938 83.5291C353.56 87.9422 354.28 92.7605 354.1 97.9842L353.965 103.793H296.82L293.713 91.6347H336.403L334.106 94.2015V91.4996C333.926 89.2481 333.205 87.2667 331.945 85.5555C330.774 83.7542 329.198 82.3583 327.216 81.3676C325.235 80.3769 322.983 79.8815 320.461 79.8815C316.949 79.8815 313.932 80.602 311.41 82.043C308.978 83.394 307.132 85.4204 305.871 88.1223C304.61 90.7341 303.98 93.9764 303.98 97.8491C303.98 101.812 304.791 105.279 306.412 108.251C308.123 111.133 310.555 113.385 313.707 115.006C316.949 116.627 320.777 117.438 325.19 117.438C328.252 117.438 330.954 116.987 333.295 116.087C335.727 115.186 338.339 113.655 341.131 111.494L351.263 125.814C348.471 128.245 345.499 130.227 342.347 131.758C339.195 133.289 335.952 134.415 332.62 135.135C329.378 135.946 326.135 136.351 322.893 136.351ZM381.245 113.925L373.275 97.714L406.778 63.2649H435.283L381.245 113.925ZM360.441 135V35.0303H382.056V135H360.441ZM409.075 135L383.812 102.307L399.078 90.4189L434.608 135H409.075Z" fill="#EFF4CD" fill-opacity="0.5"/>
<path d="M11.8883 135H10.5098V136.379H11.8883V135ZM11.8883 40.434V39.0555H10.5098V40.434H11.8883ZM70.1139 43.271L69.5801 44.542L69.591 44.5465L69.602 44.5509L70.1139 43.271ZM80.246 51.2416L79.0855 51.9855L79.0966 52.0029L79.1083 52.02L80.246 51.2416ZM79.7056 77.3148L78.5931 76.5007L78.5866 76.5097L78.5802 76.5187L79.7056 77.3148ZM68.2226 84.7449L66.8517 84.8892L67.0177 86.4671L68.5569 86.0823L68.2226 84.7449ZM67.9524 82.1781L68.2393 80.8298L66.3828 80.4348L66.5815 82.3224L67.9524 82.1781ZM78.8951 86.9064L78.0784 88.017L78.0861 88.0227L78.0938 88.0282L78.8951 86.9064ZM86.1901 95.2823L84.9639 95.912L84.9674 95.9189L84.971 95.9257L86.1901 95.2823ZM86.3252 118.924L87.5769 119.501L87.5823 119.489L86.3252 118.924ZM79.3003 127.84L78.4431 126.76L78.4431 126.76L79.3003 127.84ZM68.4928 133.244L68.1179 131.917L68.1102 131.919L68.4928 133.244ZM33.5034 115.817H32.1249V117.195H33.5034V115.817ZM60.5222 114.601L59.9565 113.344L59.9443 113.349L59.9321 113.355L60.5222 114.601ZM64.7102 111.088L65.8675 111.837L65.8772 111.822L65.8864 111.807L64.7102 111.088ZM64.5751 100.011L63.4391 100.792L63.4552 100.815L63.4722 100.838L64.5751 100.011ZM60.252 96.7683L59.709 98.0354L59.7349 98.0465L59.7613 98.0565L60.252 96.7683ZM33.5034 95.5525V94.174H32.1249V95.5525H33.5034ZM33.5034 78.3955H32.1249V79.774H33.5034V78.3955ZM56.3343 77.3148L56.8942 78.5745L56.9094 78.5677L56.9244 78.5606L56.3343 77.3148ZM60.1169 74.0725L58.948 73.3419L58.9413 73.3525L58.9349 73.3632L60.1169 74.0725ZM58.4958 62.1842L57.5948 63.2275L57.6087 63.2395L57.6229 63.2511L58.4958 62.1842ZM33.5034 59.6174V58.2389H32.1249V59.6174H33.5034ZM13.2668 135V40.434H10.5098V135H13.2668ZM11.8883 41.8125H53.6324V39.0555H11.8883V41.8125ZM53.6324 41.8125C59.9905 41.8125 65.2915 42.7408 69.5801 44.542L70.6477 42C65.93 40.0186 60.2434 39.0555 53.6324 39.0555V41.8125ZM69.602 44.5509C73.8831 46.2634 77.0131 48.7526 79.0855 51.9855L81.4065 50.4976C78.9758 46.7056 75.351 43.8811 70.6259 41.9911L69.602 44.5509ZM79.1083 52.02C81.2674 55.1756 82.3799 59.0354 82.3799 63.6702H85.137C85.137 58.5782 83.9079 54.1523 81.3837 50.4631L79.1083 52.02ZM82.3799 63.6702C82.3799 68.8359 81.0925 73.0849 78.5931 76.5007L80.8181 78.1288C83.7225 74.1594 85.137 69.3121 85.137 63.6702H82.3799ZM78.5802 76.5187C76.187 79.9022 72.6625 82.214 67.8883 83.4076L68.5569 86.0823C73.8697 84.7541 78.0006 82.1124 80.8311 78.1108L78.5802 76.5187ZM69.5935 84.6006L69.3234 82.0338L66.5815 82.3224L66.8517 84.8892L69.5935 84.6006ZM67.6655 83.5265C71.7335 84.392 75.1945 85.8965 78.0784 88.017L79.7117 85.7958C76.4714 83.4133 72.6372 81.7655 68.2393 80.8298L67.6655 83.5265ZM78.0938 88.0282C81.0734 90.1565 83.3566 92.782 84.9639 95.912L87.4164 94.6526C85.6013 91.1179 83.0211 88.1595 79.6963 85.7847L78.0938 88.0282ZM84.971 95.9257C86.5646 98.9451 87.3784 102.412 87.3784 106.36H90.1354C90.1354 102.022 89.2381 98.104 87.4093 94.6389L84.971 95.9257ZM87.3784 106.36C87.3784 110.978 86.5944 114.966 85.0681 118.358L87.5823 119.489C89.2984 115.676 90.1354 111.289 90.1354 106.36H87.3784ZM85.0736 118.346C83.5439 121.661 81.3382 124.461 78.4431 126.76L80.1576 128.92C83.3868 126.355 85.8643 123.212 87.5769 119.501L85.0736 118.346ZM78.4431 126.76C75.5376 129.068 72.103 130.791 68.1179 131.917L68.8677 134.57C73.1683 133.355 76.9388 131.476 80.1576 128.92L78.4431 126.76ZM68.1102 131.919C64.2011 133.049 59.8293 133.621 54.9834 133.621V136.379C60.0444 136.379 64.6788 135.78 68.8754 134.568L68.1102 131.919ZM54.9834 133.621H11.8883V136.379H54.9834V133.621ZM33.5034 117.195H54.1728V114.438H33.5034V117.195ZM54.1728 117.195C56.8341 117.195 59.1661 116.768 61.1124 115.847L59.9321 113.355C58.4559 114.054 56.555 114.438 54.1728 114.438V117.195ZM61.0879 115.858C63.1102 114.948 64.7206 113.61 65.8675 111.837L63.5528 110.339C62.7183 111.629 61.5367 112.633 59.9565 113.344L61.0879 115.858ZM65.8864 111.807C67.0321 109.932 67.5747 107.737 67.5747 105.279H64.8177C64.8177 107.325 64.3696 109.002 63.5339 110.369L65.8864 111.807ZM67.5747 105.279C67.5747 102.956 66.9637 100.898 65.6779 99.1835L63.4722 100.838C64.348 102.005 64.8177 103.459 64.8177 105.279H67.5747ZM65.711 99.2296C64.5378 97.5232 62.8533 96.2841 60.7428 95.4801L59.7613 98.0565C61.4334 98.6935 62.6309 99.616 63.4391 100.792L65.711 99.2296ZM60.7951 95.5013C58.6926 94.6002 56.2474 94.174 53.4973 94.174V96.931C55.9709 96.931 58.0288 97.3153 59.709 98.0354L60.7951 95.5013ZM53.4973 94.174H33.5034V96.931H53.4973V94.174ZM32.1249 95.5525V115.817H34.8819V95.5525H32.1249ZM33.5034 79.774H50.3902V77.017H33.5034V79.774ZM50.3902 79.774C52.8659 79.774 55.05 79.3941 56.8942 78.5745L55.7744 76.0551C54.3763 76.6764 52.5977 77.017 50.3902 77.017V79.774ZM56.9244 78.5606C58.8312 77.6573 60.3223 76.4096 61.299 74.7817L58.9349 73.3632C58.2905 74.4372 57.2598 75.351 55.7442 76.0689L56.9244 78.5606ZM61.2859 74.8031C62.3449 73.1087 62.8464 71.135 62.8464 68.9389H60.0894C60.0894 70.7056 59.6903 72.1542 58.948 73.3419L61.2859 74.8031ZM62.8464 68.9389C62.8464 65.7021 61.7129 63.0353 59.3687 61.1173L57.6229 63.2511C59.2415 64.5754 60.0894 66.4117 60.0894 68.9389H62.8464ZM59.3968 61.1409C57.064 59.1262 53.7094 58.2389 49.5796 58.2389V60.9959C53.3754 60.9959 55.9648 61.8198 57.5948 63.2275L59.3968 61.1409ZM49.5796 58.2389H33.5034V60.9959H49.5796V58.2389ZM32.1249 59.6174V78.3955H34.8819V59.6174H32.1249ZM107.693 133.109L106.955 134.273L106.972 134.283L106.988 134.293L107.693 133.109ZM99.0473 123.112L97.7941 123.686L97.7991 123.697L97.8041 123.707L99.0473 123.112ZM96.0752 63.2649V61.8864H94.6967V63.2649H96.0752ZM117.825 63.2649H119.204V61.8864H117.825V63.2649ZM119.176 112.034L120.441 111.484L120.441 111.484L119.176 112.034ZM123.229 116.897L122.478 118.053L122.499 118.067L122.52 118.079L123.229 116.897ZM134.847 117.573L134.348 116.288L134.335 116.293L134.322 116.298L134.847 117.573ZM138.9 115.006L139.875 115.981L139.875 115.981L138.9 115.006ZM141.602 111.088L142.865 111.641L142.871 111.627L142.877 111.613L141.602 111.088ZM142.548 63.2649V61.8864H141.169V63.2649H142.548ZM164.298 63.2649H165.676V61.8864H164.298V63.2649ZM164.298 135V136.379H165.676V135H164.298ZM143.899 135L142.523 135.088L142.606 136.379H143.899V135ZM142.953 120.275L142.441 118.995L141.513 119.366L141.577 120.363L142.953 120.275ZM147.006 118.654L148.32 119.069L149.197 116.292L146.494 117.374L147.006 118.654ZM141.602 127.84L142.594 128.798L142.602 128.789L142.61 128.781L141.602 127.84ZM132.551 134.189L133.102 135.453L133.115 135.447L133.128 135.441L132.551 134.189ZM121.338 135.108C116.221 135.108 111.927 134.025 108.398 131.924L106.988 134.293C111.024 136.696 115.827 137.865 121.338 137.865V135.108ZM108.432 131.945C104.978 129.754 102.261 126.629 100.29 122.516L97.8041 123.707C99.9761 128.24 103.023 131.78 106.955 134.273L108.432 131.945ZM100.3 122.537C98.4207 118.436 97.4537 113.463 97.4537 107.576H94.6967C94.6967 113.757 95.7111 119.141 97.7941 123.686L100.3 122.537ZM97.4537 107.576V63.2649H94.6967V107.576H97.4537ZM96.0752 64.6435H117.825V61.8864H96.0752V64.6435ZM116.447 63.2649V104.604H119.204V63.2649H116.447ZM116.447 104.604C116.447 107.625 116.918 110.298 117.912 112.584L120.441 111.484C119.633 109.627 119.204 107.347 119.204 104.604H116.447ZM117.912 112.584C118.915 114.89 120.438 116.727 122.478 118.053L123.98 115.742C122.418 114.726 121.239 113.321 120.441 111.484L117.912 112.584ZM122.52 118.079C124.575 119.312 126.992 119.897 129.714 119.897V117.14C127.391 117.14 125.486 116.644 123.938 115.715L122.52 118.079ZM129.714 119.897C131.76 119.897 133.653 119.556 135.372 118.848L134.322 116.298C132.98 116.851 131.45 117.14 129.714 117.14V119.897ZM135.347 118.858C137.122 118.167 138.642 117.214 139.875 115.981L137.925 114.031C136.997 114.959 135.815 115.717 134.348 116.288L135.347 118.858ZM139.875 115.981C141.161 114.695 142.162 113.248 142.865 111.641L140.339 110.536C139.781 111.811 138.981 112.976 137.925 114.031L139.875 115.981ZM142.877 111.613C143.581 109.902 143.926 108.055 143.926 106.09H141.169C141.169 107.727 140.883 109.213 140.327 110.563L142.877 111.613ZM143.926 106.09V63.2649H141.169V106.09H143.926ZM142.548 64.6435H164.298V61.8864H142.548V64.6435ZM162.919 63.2649V135H165.676V63.2649H162.919ZM164.298 133.621H143.899V136.379H164.298V133.621ZM145.274 134.912L144.329 120.186L141.577 120.363L142.523 135.088L145.274 134.912ZM143.465 121.555L147.518 119.934L146.494 117.374L142.441 118.995L143.465 121.555ZM145.691 118.238C144.674 121.459 142.98 124.343 140.594 126.899L142.61 128.781C145.267 125.933 147.176 122.693 148.32 119.069L145.691 118.238ZM140.61 126.882C138.215 129.364 135.341 131.383 131.973 132.938L133.128 135.441C136.786 133.753 139.946 131.54 142.594 128.798L140.61 126.882ZM132 132.926C128.667 134.378 125.118 135.108 121.338 135.108V137.865C125.484 137.865 129.409 137.063 133.102 135.453L132 132.926ZM173.295 135H171.917V136.379H173.295V135ZM173.295 122.571L172.208 121.724L171.917 122.098V122.571H173.295ZM211.392 73.6672H212.77V69.6545L210.304 72.82L211.392 73.6672ZM211.392 80.8272V82.2057H212.77V80.8272H211.392ZM173.295 80.8272H171.917V82.2057H173.295V80.8272ZM173.295 63.2649V61.8864H171.917V63.2649H173.295ZM232.737 63.2649H234.115V61.8864H232.737V63.2649ZM232.737 76.234L233.834 77.0686L234.115 76.6987V76.234H232.737ZM196.667 123.652L195.293 123.772L195.603 127.328L197.764 124.487L196.667 123.652ZM196.126 117.438V116.059H194.623L194.753 117.557L196.126 117.438ZM233.953 117.438H235.331V116.059H233.953V117.438ZM233.953 135V136.379H235.331V135H233.953ZM174.674 135V122.571H171.917V135H174.674ZM174.383 123.418L212.479 74.5144L210.304 72.82L172.208 121.724L174.383 123.418ZM210.013 73.6672V80.8272H212.77V73.6672H210.013ZM211.392 79.4487H173.295V82.2057H211.392V79.4487ZM174.674 80.8272V63.2649H171.917V80.8272H174.674ZM173.295 64.6435H232.737V61.8864H173.295V64.6435ZM231.358 63.2649V76.234H234.115V63.2649H231.358ZM231.64 75.3994L195.569 122.817L197.764 124.487L233.834 77.0686L231.64 75.3994ZM198.04 123.533L197.5 117.318L194.753 117.557L195.293 123.772L198.04 123.533ZM196.126 118.816H233.953V116.059H196.126V118.816ZM232.574 117.438V135H235.331V117.438H232.574ZM233.953 133.621H173.295V136.379H233.953V133.621ZM248.922 135H247.543V136.379H248.922V135ZM248.922 45.1623V43.7838H247.543V45.1623H248.922ZM270.537 45.1623H271.915V43.7838H270.537V45.1623ZM270.537 135V136.379H271.915V135H270.537ZM236.223 82.1781H234.844V83.5567H236.223V82.1781ZM236.223 63.2649V61.8864H234.844V63.2649H236.223ZM284.451 63.2649H285.83V61.8864H284.451V63.2649ZM284.451 82.1781V83.5567H285.83V82.1781H284.451ZM250.3 135V45.1623H247.543V135H250.3ZM248.922 46.5408H270.537V43.7838H248.922V46.5408ZM269.158 45.1623V135H271.915V45.1623H269.158ZM270.537 133.621H248.922V136.379H270.537V133.621ZM237.601 82.1781V63.2649H234.844V82.1781H237.601ZM236.223 64.6435H284.451V61.8864H236.223V64.6435ZM283.073 63.2649V82.1781H285.83V63.2649H283.073ZM284.451 80.7996H236.223V83.5567H284.451V80.7996ZM302.224 131.623L301.556 132.829L301.563 132.833L301.57 132.836L302.224 131.623ZM288.579 118.518L287.387 119.211L287.392 119.219L288.579 118.518ZM286.418 84.3397L285.134 83.8364L285.134 83.8364L286.418 84.3397ZM293.983 72.4514L294.971 73.4127L294.977 73.4061L294.984 73.3994L293.983 72.4514ZM305.466 64.6159L305.987 65.8922L306 65.8869L305.466 64.6159ZM333.971 64.4808L333.421 65.745L333.431 65.7492L333.971 64.4808ZM354.1 97.9842L352.722 97.9367L352.722 97.9444L352.722 97.9521L354.1 97.9842ZM353.965 103.793V105.172H355.312L355.343 103.825L353.965 103.793ZM296.82 103.793L295.484 104.135L295.749 105.172H296.82V103.793ZM293.713 91.6347V90.2562H291.938L292.377 91.9761L293.713 91.6347ZM336.403 91.6347L337.43 92.5539L339.486 90.2562H336.403V91.6347ZM334.106 94.2015H332.727V97.8096L335.133 95.1207L334.106 94.2015ZM334.106 91.4996H335.485V91.4446L335.48 91.3897L334.106 91.4996ZM331.945 85.5555L330.789 86.3068L330.811 86.3407L330.835 86.3732L331.945 85.5555ZM327.216 81.3676L326.6 82.6006L326.6 82.6006L327.216 81.3676ZM311.41 82.043L312.08 83.2481L312.087 83.2441L312.094 83.2399L311.41 82.043ZM305.871 88.1223L307.113 88.7216L307.117 88.7134L307.12 88.7052L305.871 88.1223ZM306.412 108.251L305.202 108.911L305.214 108.934L305.226 108.955L306.412 108.251ZM313.707 115.006L313.076 116.232L313.083 116.236L313.09 116.239L313.707 115.006ZM333.295 116.087L332.817 114.794L332.809 114.797L332.801 114.8L333.295 116.087ZM341.131 111.494L342.256 110.697L341.425 109.523L340.287 110.404L341.131 111.494ZM351.263 125.814L352.168 126.853L353.108 126.035L352.388 125.017L351.263 125.814ZM342.347 131.758L342.949 132.998L342.347 131.758ZM332.62 135.135L332.329 133.788L332.307 133.792L332.286 133.798L332.62 135.135ZM322.893 134.972C315.152 134.972 308.495 133.434 302.877 130.409L301.57 132.836C307.66 136.116 314.783 137.729 322.893 137.729V134.972ZM302.892 130.417C297.242 127.287 292.878 123.089 289.766 117.818L287.392 119.219C290.766 124.935 295.498 129.473 301.556 132.829L302.892 130.417ZM289.771 117.826C286.663 112.474 285.094 106.367 285.094 99.4702H282.337C282.337 106.803 284.011 113.396 287.387 119.211L289.771 117.826ZM285.094 99.4702C285.094 94.1291 285.969 89.2586 287.701 84.8429L285.134 83.8364C283.263 88.6071 282.337 93.8237 282.337 99.4702H285.094ZM287.701 84.8429C289.44 80.4099 291.864 76.6056 294.971 73.4127L292.995 71.49C289.617 74.9618 286.998 79.083 285.134 83.8364L287.701 84.8429ZM294.984 73.3994C298.09 70.1209 301.753 67.6202 305.987 65.8922L304.945 63.3396C300.353 65.2141 296.361 67.937 292.982 71.5033L294.984 73.3994ZM306 65.8869C310.32 64.0725 315.045 63.1574 320.191 63.1574V60.4004C314.711 60.4004 309.619 61.3766 304.932 63.3449L306 65.8869ZM320.191 63.1574C325.068 63.1574 329.471 64.0275 333.421 65.745L334.521 63.2166C330.185 61.3316 325.402 60.4004 320.191 60.4004V63.1574ZM333.431 65.7492C337.495 67.4786 340.984 69.8927 343.911 72.9926L345.916 71.0996C342.719 67.7149 338.913 65.0855 334.511 63.2124L333.431 65.7492ZM343.911 72.9926C346.838 76.0919 349.084 79.7569 350.644 84.0044L353.232 83.0538C351.55 78.4751 349.113 74.4848 345.916 71.0996L343.911 72.9926ZM350.644 84.0044C352.198 88.2325 352.897 92.8712 352.722 97.9367L355.478 98.0317C355.663 92.6499 354.921 87.6518 353.232 83.0538L350.644 84.0044ZM352.722 97.9521L352.587 103.761L355.343 103.825L355.478 98.0162L352.722 97.9521ZM353.965 102.415H296.82V105.172H353.965V102.415ZM298.156 103.452L295.048 91.2934L292.377 91.9761L295.484 104.135L298.156 103.452ZM293.713 93.0133H336.403V90.2562H293.713V93.0133ZM335.375 90.7156L333.079 93.2823L335.133 95.1207L337.43 92.5539L335.375 90.7156ZM335.485 94.2015V91.4996H332.727V94.2015H335.485ZM335.48 91.3897C335.281 88.8989 334.477 86.6688 333.054 84.7378L330.835 86.3732C331.934 87.8646 332.571 89.5972 332.732 91.6096L335.48 91.3897ZM333.1 84.8042C331.791 82.7907 330.026 81.2314 327.833 80.1346L326.6 82.6006C328.369 83.4851 329.756 84.7178 330.789 86.3068L333.1 84.8042ZM327.833 80.1346C325.635 79.0357 323.167 78.503 320.461 78.503V81.2601C322.799 81.2601 324.835 81.7181 326.6 82.6006L327.833 80.1346ZM320.461 78.503C316.759 78.503 313.496 79.2635 310.726 80.8462L312.094 83.2399C314.368 81.9406 317.139 81.2601 320.461 81.2601V78.503ZM310.741 80.838C308.036 82.3404 305.997 84.5942 304.622 87.5393L307.12 88.7052C308.268 86.2466 309.921 84.4476 312.08 83.2481L310.741 80.838ZM304.63 87.523C303.254 90.3734 302.601 93.8352 302.601 97.8491H305.359C305.359 94.1176 305.967 91.0948 307.113 88.7216L304.63 87.523ZM302.601 97.8491C302.601 102.003 303.452 105.705 305.202 108.911L307.622 107.591C306.129 104.854 305.359 101.621 305.359 97.8491H302.601ZM305.226 108.955C307.078 112.073 309.708 114.499 313.076 116.232L314.337 113.78C311.402 112.27 309.168 110.194 307.597 107.548L305.226 108.955ZM313.09 116.239C316.561 117.974 320.609 118.816 325.19 118.816V116.059C320.945 116.059 317.337 115.28 314.323 113.773L313.09 116.239ZM325.19 118.816C328.385 118.816 331.26 118.347 333.79 117.373L332.801 114.8C330.647 115.628 328.119 116.059 325.19 116.059V118.816ZM333.774 117.38C336.375 116.416 339.109 114.802 341.975 112.584L340.287 110.404C337.569 112.508 335.079 113.956 332.817 114.794L333.774 117.38ZM340.006 112.29L350.138 126.61L352.388 125.017L342.256 110.697L340.006 112.29ZM350.358 124.774C347.652 127.13 344.781 129.043 341.744 130.518L342.949 132.998C346.217 131.411 349.29 129.36 352.168 126.853L350.358 124.774ZM341.744 130.518C338.689 132.002 335.55 133.091 332.329 133.788L332.911 136.482C336.354 135.738 339.701 134.576 342.949 132.998L341.744 130.518ZM332.286 133.798C329.149 134.582 326.019 134.972 322.893 134.972V137.729C326.252 137.729 329.606 137.31 332.954 136.472L332.286 133.798ZM381.245 113.925L380.008 114.534L380.83 116.204L382.188 114.931L381.245 113.925ZM373.275 97.714L372.287 96.7529L371.609 97.4498L372.038 98.3222L373.275 97.714ZM406.778 63.2649V61.8864H406.196L405.79 62.3039L406.778 63.2649ZM435.283 63.2649L436.226 64.2706L438.769 61.8864H435.283V63.2649ZM360.441 135H359.062V136.379H360.441V135ZM360.441 35.0303V33.6517H359.062V35.0303H360.441ZM382.056 35.0303H383.435V33.6517H382.056V35.0303ZM382.056 135V136.379H383.435V135H382.056ZM409.075 135L407.984 135.843L408.398 136.379H409.075V135ZM383.812 102.307L382.965 101.22L381.882 102.063L382.721 103.15L383.812 102.307ZM399.078 90.4189L400.156 89.5597L399.306 88.4938L398.231 89.3313L399.078 90.4189ZM434.608 135V136.379H437.469L435.686 134.141L434.608 135ZM382.483 113.317L374.512 97.1058L372.038 98.3222L380.008 114.534L382.483 113.317ZM374.263 98.6751L407.767 64.226L405.79 62.3039L372.287 96.7529L374.263 98.6751ZM406.778 64.6435H435.283V61.8864H406.778V64.6435ZM434.34 62.2593L380.303 112.92L382.188 114.931L436.226 64.2706L434.34 62.2593ZM361.819 135V35.0303H359.062V135H361.819ZM360.441 36.4088H382.056V33.6517H360.441V36.4088ZM380.678 35.0303V135H383.435V35.0303H380.678ZM382.056 133.621H360.441V136.379H382.056V133.621ZM410.166 134.157L384.903 101.464L382.721 103.15L407.984 135.843L410.166 134.157ZM384.659 103.395L399.925 91.5065L398.231 89.3313L382.965 101.22L384.659 103.395ZM398 91.2781L433.53 135.859L435.686 134.141L400.156 89.5597L398 91.2781ZM434.608 133.621H409.075V136.379H434.608V133.621Z" fill="#D9DADB"/>
<path d="M21.9996 135V40.434H63.7437C70.2283 40.434 75.7221 41.3797 80.2253 43.271C84.7284 45.0723 88.1057 47.7291 90.3573 51.2416C92.699 54.6639 93.8698 58.8068 93.8698 63.6702C93.8698 69.074 92.5188 73.6222 89.8169 77.3148C87.2051 81.0073 83.3774 83.4841 78.3339 84.7449L78.0637 82.1781C82.2967 83.0788 85.9442 84.6549 89.0064 86.9064C92.1586 89.158 94.5903 91.95 96.3015 95.2823C98.0127 98.5246 98.8683 102.217 98.8683 106.36C98.8683 111.133 98.0577 115.321 96.4366 118.924C94.8154 122.436 92.4738 125.408 89.4117 127.84C86.3495 130.272 82.747 132.073 78.6041 133.244C74.5513 134.415 70.0481 135 65.0947 135H21.9996ZM43.6147 115.817H64.2841C66.8059 115.817 68.9224 115.411 70.6336 114.601C72.4348 113.79 73.8308 112.619 74.8215 111.088C75.8122 109.467 76.3075 107.531 76.3075 105.279C76.3075 103.208 75.7671 101.452 74.6864 100.011C73.6957 98.5696 72.2547 97.4888 70.3634 96.7683C68.472 95.9578 66.2205 95.5525 63.6087 95.5525H43.6147V115.817ZM43.6147 78.3955H60.5015C62.8431 78.3955 64.8245 78.0353 66.4456 77.3148C68.1568 76.5042 69.4177 75.4234 70.2283 74.0725C71.1289 72.6315 71.5792 70.9203 71.5792 68.9389C71.5792 66.0569 70.5885 63.8053 68.6071 62.1842C66.6258 60.473 63.6537 59.6174 59.6909 59.6174H43.6147V78.3955ZM132.125 136.486C126.811 136.486 122.263 135.36 118.48 133.109C114.788 130.767 111.906 127.435 109.834 123.112C107.853 118.789 106.862 113.61 106.862 107.576V63.2649H128.612V104.604C128.612 107.486 129.063 109.963 129.963 112.034C130.864 114.105 132.215 115.727 134.016 116.897C135.817 117.978 137.979 118.518 140.5 118.518C142.392 118.518 144.103 118.203 145.634 117.573C147.255 116.942 148.606 116.087 149.687 115.006C150.858 113.835 151.758 112.529 152.389 111.088C153.019 109.557 153.334 107.891 153.334 106.09V63.2649H175.085V135H154.685L153.74 120.275L157.793 118.654C156.712 122.076 154.911 125.138 152.389 127.84C149.867 130.452 146.85 132.568 143.337 134.189C139.825 135.721 136.087 136.486 132.125 136.486ZM184.758 135V122.571L222.854 73.6672V80.8272H184.758V63.2649H244.199V76.234L208.129 123.652L207.589 117.438H245.415V135H184.758ZM261.059 135V45.1623H282.675V135H261.059ZM248.361 82.1781V63.2649H296.589V82.1781H248.361ZM335.706 136.351C327.781 136.351 320.891 134.775 315.037 131.623C309.183 128.38 304.635 124.012 301.392 118.518C298.15 112.935 296.529 106.585 296.529 99.4702C296.529 93.9764 297.43 88.9329 299.231 84.3397C301.032 79.7464 303.554 75.7837 306.796 72.4514C310.039 69.029 313.866 66.4171 318.279 64.6159C322.782 62.7246 327.691 61.7789 333.005 61.7789C338.048 61.7789 342.641 62.6795 346.784 64.4808C351.017 66.2821 354.665 68.8038 357.727 72.0461C360.789 75.2883 363.131 79.116 364.752 83.5291C366.373 87.9422 367.093 92.7605 366.913 97.9842L366.778 103.793H309.633L306.526 91.6347H349.216L346.919 94.2015V91.4996C346.739 89.2481 346.019 87.2667 344.758 85.5555C343.587 83.7542 342.011 82.3583 340.029 81.3676C338.048 80.3769 335.796 79.8815 333.275 79.8815C329.762 79.8815 326.745 80.602 324.223 82.043C321.792 83.394 319.945 85.4204 318.685 88.1223C317.424 90.7341 316.793 93.9764 316.793 97.8491C316.793 101.812 317.604 105.279 319.225 108.251C320.936 111.133 323.368 113.385 326.52 115.006C329.762 116.627 333.59 117.438 338.003 117.438C341.065 117.438 343.767 116.987 346.109 116.087C348.54 115.186 351.152 113.655 353.944 111.494L364.076 125.814C361.284 128.245 358.312 130.227 355.16 131.758C352.008 133.289 348.766 134.415 345.433 135.135C342.191 135.946 338.949 136.351 335.706 136.351ZM394.734 113.925L386.764 97.714L420.267 63.2649H448.772L394.734 113.925ZM373.93 135V35.0303H395.545V135H373.93ZM422.564 135L397.301 102.307L412.567 90.4189L448.096 135H422.564Z" fill="#EFF4CD" fill-opacity="0.5"/>
<path d="M21.9996 135H20.6211V136.379H21.9996V135ZM21.9996 40.434V39.0555H20.6211V40.434H21.9996ZM80.2253 43.271L79.6914 44.542L79.7023 44.5465L79.7133 44.5509L80.2253 43.271ZM90.3573 51.2416L89.1968 51.9855L89.2079 52.0029L89.2196 52.02L90.3573 51.2416ZM89.8169 77.3148L88.7044 76.5007L88.6979 76.5097L88.6915 76.5187L89.8169 77.3148ZM78.3339 84.7449L76.963 84.8892L77.1291 86.4671L78.6683 86.0823L78.3339 84.7449ZM78.0637 82.1781L78.3506 80.8298L76.4941 80.4348L76.6928 82.3224L78.0637 82.1781ZM89.0064 86.9064L88.1898 88.017L88.1974 88.0227L88.2051 88.0282L89.0064 86.9064ZM96.3015 95.2823L95.0752 95.912L95.0787 95.9189L95.0823 95.9257L96.3015 95.2823ZM96.4366 118.924L97.6883 119.501L97.6937 119.489L96.4366 118.924ZM89.4117 127.84L88.5544 126.76L88.5544 126.76L89.4117 127.84ZM78.6041 133.244L78.2292 131.917L78.2215 131.919L78.6041 133.244ZM43.6147 115.817H42.2362V117.195H43.6147V115.817ZM70.6336 114.601L70.0679 113.344L70.0556 113.349L70.0434 113.355L70.6336 114.601ZM74.8215 111.088L75.9788 111.837L75.9885 111.822L75.9977 111.807L74.8215 111.088ZM74.6864 100.011L73.5504 100.792L73.5665 100.815L73.5836 100.838L74.6864 100.011ZM70.3634 96.7683L69.8203 98.0354L69.8463 98.0465L69.8726 98.0565L70.3634 96.7683ZM43.6147 95.5525V94.174H42.2362V95.5525H43.6147ZM43.6147 78.3955H42.2362V79.774H43.6147V78.3955ZM66.4456 77.3148L67.0055 78.5745L67.0207 78.5677L67.0358 78.5606L66.4456 77.3148ZM70.2283 74.0725L69.0593 73.3419L69.0527 73.3525L69.0462 73.3632L70.2283 74.0725ZM68.6071 62.1842L67.7061 63.2275L67.72 63.2395L67.7342 63.2511L68.6071 62.1842ZM43.6147 59.6174V58.2389H42.2362V59.6174H43.6147ZM23.3781 135V40.434H20.6211V135H23.3781ZM21.9996 41.8125H63.7437V39.0555H21.9996V41.8125ZM63.7437 41.8125C70.1019 41.8125 75.4029 42.7408 79.6914 44.542L80.7591 42C76.0413 40.0186 70.3547 39.0555 63.7437 39.0555V41.8125ZM79.7133 44.5509C83.9944 46.2634 87.1244 48.7526 89.1968 51.9855L91.5179 50.4976C89.0871 46.7056 85.4624 43.8811 80.7372 41.9911L79.7133 44.5509ZM89.2196 52.02C91.3787 55.1756 92.4913 59.0354 92.4913 63.6702H95.2483C95.2483 58.5782 94.0192 54.1523 91.495 50.4631L89.2196 52.02ZM92.4913 63.6702C92.4913 68.8359 91.2038 73.0849 88.7044 76.5007L90.9294 78.1288C93.8338 74.1594 95.2483 69.3121 95.2483 63.6702H92.4913ZM88.6915 76.5187C86.2983 79.9022 82.7739 82.214 77.9996 83.4076L78.6683 86.0823C83.981 84.7541 88.1119 82.1124 90.9424 78.1108L88.6915 76.5187ZM79.7049 84.6006L79.4347 82.0338L76.6928 82.3224L76.963 84.8892L79.7049 84.6006ZM77.7769 83.5265C81.8449 84.392 85.3058 85.8965 88.1898 88.017L89.823 85.7958C86.5827 83.4133 82.7485 81.7655 78.3506 80.8298L77.7769 83.5265ZM88.2051 88.0282C91.1848 90.1565 93.4679 92.782 95.0752 95.912L97.5277 94.6526C95.7126 91.1179 93.1324 88.1595 89.8076 85.7847L88.2051 88.0282ZM95.0823 95.9257C96.6759 98.9451 97.4897 102.412 97.4897 106.36H100.247C100.247 102.022 99.3494 98.104 97.5206 94.6389L95.0823 95.9257ZM97.4897 106.36C97.4897 110.978 96.7057 114.966 95.1795 118.358L97.6937 119.489C99.4097 115.676 100.247 111.289 100.247 106.36H97.4897ZM95.1849 118.346C93.6552 121.661 91.4495 124.461 88.5544 126.76L90.2689 128.92C93.4981 126.355 95.9757 123.212 97.6882 119.501L95.1849 118.346ZM88.5544 126.76C85.6489 129.068 82.2144 130.791 78.2292 131.917L78.979 134.57C83.2797 133.355 87.0501 131.476 90.2689 128.92L88.5544 126.76ZM78.2215 131.919C74.3125 133.049 69.9406 133.621 65.0947 133.621V136.379C70.1557 136.379 74.7901 135.78 78.9867 134.568L78.2215 131.919ZM65.0947 133.621H21.9996V136.379H65.0947V133.621ZM43.6147 117.195H64.2841V114.438H43.6147V117.195ZM64.2841 117.195C66.9455 117.195 69.2774 116.768 71.2237 115.847L70.0434 113.355C68.5673 114.054 66.6663 114.438 64.2841 114.438V117.195ZM71.1992 115.858C73.2216 114.948 74.832 113.61 75.9788 111.837L73.6641 110.339C72.8296 111.629 71.6481 112.633 70.0679 113.344L71.1992 115.858ZM75.9977 111.807C77.1434 109.932 77.686 107.737 77.686 105.279H74.929C74.929 107.325 74.4809 109.002 73.6452 110.369L75.9977 111.807ZM77.686 105.279C77.686 102.956 77.075 100.898 75.7892 99.1835L73.5836 100.838C74.4593 102.005 74.929 103.459 74.929 105.279H77.686ZM75.8223 99.2296C74.6492 97.5232 72.9646 96.2841 70.8541 95.4801L69.8726 98.0565C71.5448 98.6935 72.7422 99.616 73.5504 100.792L75.8223 99.2296ZM70.9064 95.5013C68.804 94.6002 66.3588 94.174 63.6087 94.174V96.931C66.0822 96.931 68.1401 97.3153 69.8203 98.0354L70.9064 95.5013ZM63.6087 94.174H43.6147V96.931H63.6087V94.174ZM42.2362 95.5525V115.817H44.9932V95.5525H42.2362ZM43.6147 79.774H60.5015V77.017H43.6147V79.774ZM60.5015 79.774C62.9772 79.774 65.1613 79.3941 67.0055 78.5745L65.8858 76.0551C64.4877 76.6764 62.709 77.017 60.5015 77.017V79.774ZM67.0358 78.5606C68.9425 77.6573 70.4336 76.4096 71.4103 74.7817L69.0462 73.3632C68.4018 74.4372 67.3711 75.351 65.8555 76.0689L67.0358 78.5606ZM71.3973 74.8031C72.4562 73.1087 72.9577 71.135 72.9577 68.9389H70.2007C70.2007 70.7056 69.8016 72.1542 69.0593 73.3419L71.3973 74.8031ZM72.9577 68.9389C72.9577 65.7021 71.8243 63.0353 69.4801 61.1173L67.7342 63.2511C69.3528 64.5754 70.2007 66.4117 70.2007 68.9389H72.9577ZM69.5082 61.1409C67.1754 59.1262 63.8207 58.2389 59.6909 58.2389V60.9959C63.4867 60.9959 66.0762 61.8198 67.7061 63.2275L69.5082 61.1409ZM59.6909 58.2389H43.6147V60.9959H59.6909V58.2389ZM42.2362 59.6174V78.3955H44.9932V59.6174H42.2362ZM118.48 133.109L117.742 134.273L117.758 134.283L117.775 134.293L118.48 133.109ZM109.834 123.112L108.581 123.686L108.586 123.697L108.591 123.707L109.834 123.112ZM106.862 63.2649V61.8864H105.484V63.2649H106.862ZM128.612 63.2649H129.991V61.8864H128.612V63.2649ZM129.963 112.034L131.227 111.484L131.227 111.484L129.963 112.034ZM134.016 116.897L133.265 118.053L133.285 118.067L133.307 118.079L134.016 116.897ZM145.634 117.573L145.134 116.288L145.122 116.293L145.109 116.298L145.634 117.573ZM149.687 115.006L150.662 115.981L150.662 115.981L149.687 115.006ZM152.389 111.088L153.652 111.641L153.658 111.627L153.663 111.613L152.389 111.088ZM153.334 63.2649V61.8864H151.956V63.2649H153.334ZM175.085 63.2649H176.463V61.8864H175.085V63.2649ZM175.085 135V136.379H176.463V135H175.085ZM154.685 135L153.31 135.088L153.393 136.379H154.685V135ZM153.74 120.275L153.228 118.995L152.3 119.366L152.364 120.363L153.74 120.275ZM157.793 118.654L159.107 119.069L159.984 116.292L157.281 117.374L157.793 118.654ZM152.389 127.84L153.38 128.798L153.389 128.789L153.397 128.781L152.389 127.84ZM143.337 134.189L143.888 135.453L143.902 135.447L143.915 135.441L143.337 134.189ZM132.125 135.108C127.008 135.108 122.714 134.025 119.185 131.924L117.775 134.293C121.811 136.696 126.614 137.865 132.125 137.865V135.108ZM119.218 131.945C115.765 129.754 113.048 126.629 111.077 122.516L108.591 123.707C110.763 128.24 113.81 131.78 117.742 134.273L119.218 131.945ZM111.087 122.537C109.208 118.436 108.241 113.463 108.241 107.576H105.484C105.484 113.757 106.498 119.141 108.581 123.686L111.087 122.537ZM108.241 107.576V63.2649H105.484V107.576H108.241ZM106.862 64.6435H128.612V61.8864H106.862V64.6435ZM127.234 63.2649V104.604H129.991V63.2649H127.234ZM127.234 104.604C127.234 107.625 127.705 110.298 128.699 112.584L131.227 111.484C130.42 109.627 129.991 107.347 129.991 104.604H127.234ZM128.699 112.584C129.702 114.89 131.225 116.727 133.265 118.053L134.767 115.742C133.205 114.726 132.026 113.321 131.227 111.484L128.699 112.584ZM133.307 118.079C135.362 119.312 137.779 119.897 140.5 119.897V117.14C138.178 117.14 136.273 116.644 134.725 115.715L133.307 118.079ZM140.5 119.897C142.546 119.897 144.439 119.556 146.159 118.848L145.109 116.298C143.767 116.851 142.237 117.14 140.5 117.14V119.897ZM146.134 118.858C147.908 118.167 149.428 117.214 150.662 115.981L148.712 114.031C147.784 114.959 146.602 115.717 145.134 116.288L146.134 118.858ZM150.662 115.981C151.948 114.695 152.949 113.248 153.652 111.641L151.126 110.536C150.568 111.811 149.768 112.976 148.712 114.031L150.662 115.981ZM153.663 111.613C154.368 109.902 154.713 108.055 154.713 106.09H151.956C151.956 107.727 151.67 109.213 151.114 110.563L153.663 111.613ZM154.713 106.09V63.2649H151.956V106.09H154.713ZM153.334 64.6435H175.085V61.8864H153.334V64.6435ZM173.706 63.2649V135H176.463V63.2649H173.706ZM175.085 133.621H154.685V136.379H175.085V133.621ZM156.061 134.912L155.115 120.186L152.364 120.363L153.31 135.088L156.061 134.912ZM154.252 121.555L158.305 119.934L157.281 117.374L153.228 118.995L154.252 121.555ZM156.478 118.238C155.461 121.459 153.767 124.343 151.381 126.899L153.397 128.781C156.054 125.933 157.963 122.693 159.107 119.069L156.478 118.238ZM151.397 126.882C149.002 129.364 146.127 131.383 142.76 132.938L143.915 135.441C147.572 133.753 150.733 131.54 153.38 128.798L151.397 126.882ZM142.787 132.926C139.454 134.378 135.905 135.108 132.125 135.108V137.865C136.27 137.865 140.196 137.063 143.888 135.453L142.787 132.926ZM184.758 135H183.379V136.379H184.758V135ZM184.758 122.571L183.67 121.724L183.379 122.098V122.571H184.758ZM222.854 73.6672H224.233V69.6545L221.767 72.82L222.854 73.6672ZM222.854 80.8272V82.2057H224.233V80.8272H222.854ZM184.758 80.8272H183.379V82.2057H184.758V80.8272ZM184.758 63.2649V61.8864H183.379V63.2649H184.758ZM244.199 63.2649H245.578V61.8864H244.199V63.2649ZM244.199 76.234L245.296 77.0686L245.578 76.6987V76.234H244.199ZM208.129 123.652L206.756 123.772L207.065 127.328L209.226 124.487L208.129 123.652ZM207.589 117.438V116.059H206.085L206.215 117.557L207.589 117.438ZM245.415 117.438H246.793V116.059H245.415V117.438ZM245.415 135V136.379H246.793V135H245.415ZM186.136 135V122.571H183.379V135H186.136ZM185.845 123.418L223.942 74.5144L221.767 72.82L183.67 121.724L185.845 123.418ZM221.476 73.6672V80.8272H224.233V73.6672H221.476ZM222.854 79.4487H184.758V82.2057H222.854V79.4487ZM186.136 80.8272V63.2649H183.379V80.8272H186.136ZM184.758 64.6435H244.199V61.8864H184.758V64.6435ZM242.821 63.2649V76.234H245.578V63.2649H242.821ZM243.102 75.3994L207.032 122.817L209.226 124.487L245.296 77.0686L243.102 75.3994ZM209.502 123.533L208.962 117.318L206.215 117.557L206.756 123.772L209.502 123.533ZM207.589 118.816H245.415V116.059H207.589V118.816ZM244.036 117.438V135H246.793V117.438H244.036ZM245.415 133.621H184.758V136.379H245.415V133.621ZM261.059 135H259.681V136.379H261.059V135ZM261.059 45.1623V43.7838H259.681V45.1623H261.059ZM282.675 45.1623H284.053V43.7838H282.675V45.1623ZM282.675 135V136.379H284.053V135H282.675ZM248.361 82.1781H246.982V83.5567H248.361V82.1781ZM248.361 63.2649V61.8864H246.982V63.2649H248.361ZM296.589 63.2649H297.968V61.8864H296.589V63.2649ZM296.589 82.1781V83.5567H297.968V82.1781H296.589ZM262.438 135V45.1623H259.681V135H262.438ZM261.059 46.5408H282.675V43.7838H261.059V46.5408ZM281.296 45.1623V135H284.053V45.1623H281.296ZM282.675 133.621H261.059V136.379H282.675V133.621ZM249.739 82.1781V63.2649H246.982V82.1781H249.739ZM248.361 64.6435H296.589V61.8864H248.361V64.6435ZM295.211 63.2649V82.1781H297.968V63.2649H295.211ZM296.589 80.7996H248.361V83.5567H296.589V80.7996ZM315.037 131.623L314.369 132.829L314.376 132.833L314.383 132.836L315.037 131.623ZM301.392 118.518L300.2 119.211L300.205 119.219L301.392 118.518ZM299.231 84.3397L297.948 83.8364L297.948 83.8364L299.231 84.3397ZM306.796 72.4514L307.784 73.4127L307.791 73.4061L307.797 73.3994L306.796 72.4514ZM318.279 64.6159L318.8 65.8922L318.813 65.8869L318.279 64.6159ZM346.784 64.4808L346.234 65.745L346.244 65.7492L346.784 64.4808ZM366.913 97.9842L365.536 97.9367L365.535 97.9444L365.535 97.9521L366.913 97.9842ZM366.778 103.793V105.172H368.125L368.156 103.825L366.778 103.793ZM309.633 103.793L308.298 104.135L308.563 105.172H309.633V103.793ZM306.526 91.6347V90.2562H304.751L305.19 91.9761L306.526 91.6347ZM349.216 91.6347L350.243 92.5539L352.299 90.2562H349.216V91.6347ZM346.919 94.2015H345.541V97.8096L347.947 95.1207L346.919 94.2015ZM346.919 91.4996H348.298V91.4446L348.293 91.3897L346.919 91.4996ZM344.758 85.5555L343.602 86.3068L343.624 86.3407L343.648 86.3732L344.758 85.5555ZM340.029 81.3676L339.413 82.6006L339.413 82.6006L340.029 81.3676ZM324.223 82.043L324.893 83.2481L324.9 83.2441L324.907 83.2399L324.223 82.043ZM318.685 88.1223L319.926 88.7216L319.93 88.7134L319.934 88.7052L318.685 88.1223ZM319.225 108.251L318.015 108.911L318.027 108.934L318.04 108.955L319.225 108.251ZM326.52 115.006L325.89 116.232L325.897 116.236L325.904 116.239L326.52 115.006ZM346.109 116.087L345.63 114.794L345.622 114.797L345.614 114.8L346.109 116.087ZM353.944 111.494L355.069 110.697L354.238 109.523L353.1 110.404L353.944 111.494ZM364.076 125.814L364.982 126.853L365.921 126.035L365.202 125.017L364.076 125.814ZM355.16 131.758L355.762 132.998L355.16 131.758ZM345.433 135.135L345.142 133.788L345.12 133.792L345.099 133.798L345.433 135.135ZM335.706 134.972C327.965 134.972 321.309 133.434 315.691 130.409L314.383 132.836C320.474 136.116 327.596 137.729 335.706 137.729V134.972ZM315.705 130.417C310.055 127.287 305.691 123.089 302.58 117.818L300.205 119.219C303.579 124.935 308.311 129.473 314.369 132.829L315.705 130.417ZM302.585 117.826C299.477 112.474 297.908 106.367 297.908 99.4702H295.151C295.151 106.803 296.824 113.396 300.2 119.211L302.585 117.826ZM297.908 99.4702C297.908 94.1291 298.783 89.2586 300.514 84.8429L297.948 83.8364C296.077 88.6071 295.151 93.8237 295.151 99.4702H297.908ZM300.514 84.8429C302.253 80.4099 304.678 76.6056 307.784 73.4127L305.808 71.49C302.43 74.9618 299.812 79.083 297.948 83.8364L300.514 84.8429ZM307.797 73.3994C310.903 70.1209 314.566 67.6202 318.8 65.8922L317.758 63.3396C313.166 65.2141 309.174 67.937 305.796 71.5033L307.797 73.3994ZM318.813 65.8869C323.133 64.0725 327.858 63.1574 333.005 63.1574V60.4004C327.524 60.4004 322.432 61.3766 317.745 63.3449L318.813 65.8869ZM333.005 63.1574C337.881 63.1574 342.284 64.0275 346.235 65.745L347.334 63.2166C342.998 61.3316 338.215 60.4004 333.005 60.4004V63.1574ZM346.244 65.7492C350.308 67.4786 353.797 69.8927 356.725 72.9926L358.729 71.0996C355.532 67.7149 351.726 65.0855 347.324 63.2124L346.244 65.7492ZM356.725 72.9926C359.652 76.0919 361.897 79.7569 363.458 84.0044L366.046 83.0538C364.364 78.4751 361.926 74.4848 358.729 71.0996L356.725 72.9926ZM363.458 84.0044C365.011 88.2325 365.71 92.8712 365.536 97.9367L368.291 98.0317C368.476 92.6499 367.735 87.6518 366.046 83.0538L363.458 84.0044ZM365.535 97.9521L365.4 103.761L368.156 103.825L368.291 98.0162L365.535 97.9521ZM366.778 102.415H309.633V105.172H366.778V102.415ZM310.969 103.452L307.862 91.2934L305.19 91.9761L308.298 104.135L310.969 103.452ZM306.526 93.0133H349.216V90.2562H306.526V93.0133ZM348.189 90.7156L345.892 93.2823L347.947 95.1207L350.243 92.5539L348.189 90.7156ZM348.298 94.2015V91.4996H345.541V94.2015H348.298ZM348.293 91.3897C348.094 88.8989 347.29 86.6688 345.868 84.7378L343.648 86.3732C344.747 87.8646 345.384 89.5972 345.545 91.6096L348.293 91.3897ZM345.914 84.8042C344.605 82.7907 342.84 81.2314 340.646 80.1346L339.413 82.6006C341.182 83.4851 342.569 84.7178 343.602 86.3068L345.914 84.8042ZM340.646 80.1346C338.448 79.0357 335.981 78.503 333.275 78.503V81.2601C335.612 81.2601 337.648 81.7181 339.413 82.6006L340.646 80.1346ZM333.275 78.503C329.572 78.503 326.309 79.2635 323.539 80.8462L324.907 83.2399C327.181 81.9406 329.952 81.2601 333.275 81.2601V78.503ZM323.554 80.838C320.85 82.3404 318.81 84.5942 317.435 87.5393L319.934 88.7052C321.081 86.2466 322.734 84.4476 324.893 83.2481L323.554 80.838ZM317.443 87.523C316.067 90.3734 315.415 93.8352 315.415 97.8491H318.172C318.172 94.1176 318.78 91.0948 319.926 88.7216L317.443 87.523ZM315.415 97.8491C315.415 102.003 316.266 105.705 318.015 108.911L320.435 107.591C318.942 104.854 318.172 101.621 318.172 97.8491H315.415ZM318.04 108.955C319.891 112.073 322.521 114.499 325.89 116.232L327.15 113.78C324.215 112.27 321.981 110.194 320.41 107.548L318.04 108.955ZM325.904 116.239C329.374 117.974 333.422 118.816 338.003 118.816V116.059C333.758 116.059 330.15 115.28 327.137 113.773L325.904 116.239ZM338.003 118.816C341.198 118.816 344.073 118.347 346.604 117.373L345.614 114.8C343.461 115.628 340.932 116.059 338.003 116.059V118.816ZM346.587 117.38C349.188 116.416 351.923 114.802 354.788 112.584L353.1 110.404C350.382 112.508 347.893 113.956 345.63 114.794L346.587 117.38ZM352.819 112.29L362.951 126.61L365.202 125.017L355.069 110.697L352.819 112.29ZM363.171 124.774C360.465 127.13 357.594 129.043 354.558 130.518L355.762 132.998C359.03 131.411 362.103 129.36 364.982 126.853L363.171 124.774ZM354.558 130.518C351.502 132.002 348.364 133.091 345.142 133.788L345.725 136.482C349.167 135.738 352.514 134.576 355.762 132.998L354.558 130.518ZM345.099 133.798C341.963 134.582 338.833 134.972 335.706 134.972V137.729C339.065 137.729 342.419 137.31 345.768 136.472L345.099 133.798ZM394.734 113.925L393.497 114.534L394.319 116.204L395.677 114.931L394.734 113.925ZM386.764 97.714L385.775 96.7529L385.098 97.4498L385.527 98.3222L386.764 97.714ZM420.267 63.2649V61.8864H419.685L419.279 62.3039L420.267 63.2649ZM448.772 63.2649L449.715 64.2706L452.258 61.8864H448.772V63.2649ZM373.93 135H372.551V136.379H373.93V135ZM373.93 35.0303V33.6517H372.551V35.0303H373.93ZM395.545 35.0303H396.923V33.6517H395.545V35.0303ZM395.545 135V136.379H396.923V135H395.545ZM422.564 135L421.473 135.843L421.887 136.379H422.564V135ZM397.301 102.307L396.454 101.22L395.37 102.063L396.21 103.15L397.301 102.307ZM412.567 90.4189L413.645 89.5597L412.795 88.4938L411.72 89.3313L412.567 90.4189ZM448.096 135V136.379H450.958L449.174 134.141L448.096 135ZM395.971 113.317L388.001 97.1058L385.527 98.3222L393.497 114.534L395.971 113.317ZM387.752 98.6751L421.255 64.226L419.279 62.3039L385.775 96.7529L387.752 98.6751ZM420.267 64.6435H448.772V61.8864H420.267V64.6435ZM447.829 62.2593L393.791 112.92L395.677 114.931L449.715 64.2706L447.829 62.2593ZM375.308 135V35.0303H372.551V135H375.308ZM373.93 36.4088H395.545V33.6517H373.93V36.4088ZM394.166 35.0303V135H396.923V35.0303H394.166ZM395.545 133.621H373.93V136.379H395.545V133.621ZM423.654 134.157L398.392 101.464L396.21 103.15L421.473 135.843L423.654 134.157ZM398.148 103.395L413.414 91.5065L411.72 89.3313L396.454 101.22L398.148 103.395ZM411.489 91.2781L447.018 135.859L449.174 134.141L413.645 89.5597L411.489 91.2781ZM448.096 133.621H422.564V136.379H448.096V133.621Z" fill="#D9DADB"/>
<path d="M18.2579 135V40.434H60.002C66.4866 40.434 71.9804 41.3797 76.4836 43.271C80.9867 45.0723 84.364 47.7291 86.6156 51.2416C88.9573 54.6639 90.1281 58.8068 90.1281 63.6702C90.1281 69.074 88.7771 73.6222 86.0752 77.3148C83.4634 81.0073 79.6357 83.4841 74.5922 84.7449L74.322 82.1781C78.555 83.0788 82.2025 84.6549 85.2647 86.9064C88.4169 89.158 90.8486 91.95 92.5598 95.2823C94.271 98.5246 95.1266 102.217 95.1266 106.36C95.1266 111.133 94.316 115.321 92.6949 118.924C91.0737 122.436 88.7321 125.408 85.67 127.84C82.6078 130.272 79.0053 132.073 74.8624 133.244C70.8096 134.415 66.3064 135 61.353 135H18.2579ZM39.873 115.817H60.5424C63.0642 115.817 65.1807 115.411 66.8919 114.601C68.6931 113.79 70.0891 112.619 71.0798 111.088C72.0705 109.467 72.5658 107.531 72.5658 105.279C72.5658 103.208 72.0254 101.452 70.9447 100.011C69.954 98.5696 68.513 97.4888 66.6217 96.7683C64.7303 95.9578 62.4788 95.5525 59.867 95.5525H39.873V115.817ZM39.873 78.3955H56.7598C59.1014 78.3955 61.0828 78.0353 62.7039 77.3148C64.4151 76.5042 65.676 75.4234 66.4866 74.0725C67.3872 72.6315 67.8375 70.9203 67.8375 68.9389C67.8375 66.0569 66.8468 63.8053 64.8654 62.1842C62.8841 60.473 59.912 59.6174 55.9492 59.6174H39.873V78.3955ZM127.707 136.486C122.394 136.486 117.846 135.36 114.063 133.109C110.37 130.767 107.488 127.435 105.417 123.112C103.436 118.789 102.445 113.61 102.445 107.576V63.2649H124.195V104.604C124.195 107.486 124.645 109.963 125.546 112.034C126.447 114.105 127.798 115.727 129.599 116.897C131.4 117.978 133.562 118.518 136.083 118.518C137.975 118.518 139.686 118.203 141.217 117.573C142.838 116.942 144.189 116.087 145.27 115.006C146.441 113.835 147.341 112.529 147.972 111.088C148.602 109.557 148.917 107.891 148.917 106.09V63.2649H170.667V135H150.268L149.323 120.275L153.375 118.654C152.295 122.076 150.493 125.138 147.972 127.84C145.45 130.452 142.433 132.568 138.92 134.189C135.408 135.721 131.67 136.486 127.707 136.486ZM179.665 135V122.571L217.762 73.6672V80.8272H179.665V63.2649H239.106V76.234L203.036 123.652L202.496 117.438H240.322V135H179.665ZM255.291 135V45.1623H276.906V135H255.291ZM242.592 82.1781V63.2649H290.821V82.1781H242.592ZM329.263 136.351C321.337 136.351 314.447 134.775 308.593 131.623C302.739 128.38 298.191 124.012 294.949 118.518C291.707 112.935 290.085 106.585 290.085 99.4702C290.085 93.9764 290.986 88.9329 292.787 84.3397C294.589 79.7464 297.11 75.7837 300.353 72.4514C303.595 69.029 307.423 66.4171 311.836 64.6159C316.339 62.7246 321.247 61.7789 326.561 61.7789C331.604 61.7789 336.198 62.6795 340.341 64.4808C344.574 66.2821 348.221 68.8038 351.283 72.0461C354.345 75.2883 356.687 79.116 358.308 83.5291C359.929 87.9422 360.65 92.7605 360.47 97.9842L360.334 103.793H303.19L300.082 91.6347H342.772L340.476 94.2015V91.4996C340.296 89.2481 339.575 87.2667 338.314 85.5555C337.143 83.7542 335.567 82.3583 333.586 81.3676C331.604 80.3769 329.353 79.8815 326.831 79.8815C323.319 79.8815 320.302 80.602 317.78 82.043C315.348 83.394 313.502 85.4204 312.241 88.1223C310.98 90.7341 310.35 93.9764 310.35 97.8491C310.35 101.812 311.16 105.279 312.781 108.251C314.493 111.133 316.924 113.385 320.076 115.006C323.319 116.627 327.146 117.438 331.559 117.438C334.622 117.438 337.323 116.987 339.665 116.087C342.097 115.186 344.709 113.655 347.501 111.494L357.633 125.814C354.841 128.245 351.869 130.227 348.716 131.758C345.564 133.289 342.322 134.415 338.99 135.135C335.747 135.946 332.505 136.351 329.263 136.351ZM387.615 113.925L379.645 97.714L413.148 63.2649H441.653L387.615 113.925ZM366.811 135V35.0303H388.426V135H366.811ZM415.445 135L390.182 102.307L405.448 90.4189L440.977 135H415.445Z" fill="#292929"/>
</svg>
