<svg width="1013" height="381" viewBox="0 0 1013 381" fill="none" xmlns="http://www.w3.org/2000/svg">
<path d="M26.8014 305V91.8069H120.911C135.53 91.8069 147.915 93.9388 158.067 98.2027C168.22 102.263 175.834 108.253 180.91 116.172C186.189 123.887 188.828 133.227 188.828 144.191C188.828 156.374 185.783 166.627 179.691 174.952C173.803 183.277 165.174 188.861 153.804 191.703L153.194 185.916C162.737 187.947 170.961 191.5 177.864 196.576C184.97 201.652 190.453 207.946 194.31 215.459C198.168 222.768 200.097 231.093 200.097 240.433C200.097 251.194 198.27 260.636 194.615 268.757C190.96 276.676 185.681 283.376 178.778 288.858C171.874 294.34 163.753 298.401 154.413 301.041C145.276 303.68 135.124 305 123.957 305H26.8014ZM75.5313 261.752H122.129C127.814 261.752 132.586 260.839 136.444 259.011C140.504 257.184 143.652 254.544 145.885 251.093C148.118 247.438 149.235 243.072 149.235 237.996C149.235 233.326 148.017 229.367 145.58 226.119C143.347 222.87 140.098 220.433 135.834 218.809C131.571 216.982 126.495 216.068 120.606 216.068H75.5313V261.752ZM75.5313 177.389H113.601C118.881 177.389 123.347 176.577 127.002 174.952C130.86 173.125 133.703 170.688 135.53 167.643C137.56 164.394 138.576 160.536 138.576 156.069C138.576 149.572 136.342 144.496 131.875 140.841C127.408 136.983 120.708 135.055 111.774 135.055H75.5313V177.389ZM273.549 308.35C261.569 308.35 251.316 305.812 242.788 300.736C234.463 295.457 227.966 287.945 223.296 278.199C218.829 268.453 216.596 256.778 216.596 243.174V143.278H265.63V236.474C265.63 242.971 266.645 248.555 268.676 253.225C270.706 257.894 273.752 261.549 277.813 264.189C281.873 266.625 286.746 267.843 292.431 267.843C296.695 267.843 300.553 267.133 304.005 265.712C307.66 264.29 310.705 262.361 313.142 259.925C315.781 257.285 317.812 254.341 319.233 251.093C320.654 247.641 321.365 243.885 321.365 239.824V143.278H370.399V305H324.41L322.279 271.803L331.415 268.148C328.979 275.864 324.918 282.767 319.233 288.858C313.548 294.746 306.746 299.518 298.827 303.173C290.909 306.624 282.482 308.35 273.549 308.35ZM390.684 305V276.98L476.57 166.729V182.871H390.684V143.278H524.691V172.516L443.373 279.417L442.154 265.407H527.432V305H390.684ZM561.179 305V102.467H609.908V305H561.179ZM532.55 185.916V143.278H641.278V185.916H532.55ZM727.943 308.046C710.075 308.046 694.542 304.492 681.345 297.386C668.147 290.076 657.894 280.229 650.584 267.843C643.275 255.255 639.62 240.941 639.62 224.9C639.62 212.515 641.65 201.144 645.711 190.789C649.772 180.434 655.457 171.5 662.767 163.988C670.076 156.272 678.705 150.384 688.654 146.323C698.806 142.06 709.872 139.928 721.852 139.928C733.222 139.928 743.577 141.958 752.917 146.019C762.46 150.08 770.683 155.765 777.586 163.074C784.49 170.384 789.769 179.013 793.423 188.962C797.078 198.911 798.703 209.774 798.296 221.55L797.992 234.646H669.162L662.157 207.236H758.399L753.221 213.022V206.931C752.815 201.855 751.191 197.388 748.348 193.53C745.709 189.47 742.156 186.322 737.689 184.089C733.222 181.856 728.146 180.739 722.461 180.739C714.542 180.739 707.74 182.363 702.055 185.612C696.573 188.657 692.411 193.226 689.568 199.317C686.725 205.205 685.304 212.515 685.304 221.246C685.304 230.179 687.131 237.996 690.786 244.697C694.644 251.194 700.126 256.27 707.233 259.925C714.542 263.58 723.171 265.407 733.12 265.407C740.024 265.407 746.115 264.392 751.394 262.361C756.876 260.331 762.764 256.879 769.059 252.006L791.901 284.29C785.606 289.772 778.906 294.239 771.8 297.691C764.693 301.142 757.384 303.68 749.871 305.305C742.562 307.132 735.252 308.046 727.943 308.046ZM859.494 257.488L841.525 220.941L917.056 143.278H981.319L859.494 257.488ZM812.592 305V79.6244H861.322V305H812.592ZM922.234 305L865.281 231.296L899.696 204.495L979.796 305H922.234Z" fill="#00C9A7" fill-opacity="0.5"/>
<path d="M26.8014 305H23.6937V308.108H26.8014V305ZM26.8014 91.8069V88.6991H23.6937V91.8069H26.8014ZM158.067 98.2027L156.864 101.068L156.889 101.078L156.913 101.088L158.067 98.2027ZM180.91 116.172L178.293 117.849L178.318 117.888L178.345 117.927L180.91 116.172ZM179.691 174.952L177.183 173.117L177.169 173.137L177.154 173.158L179.691 174.952ZM153.804 191.703L150.713 192.028L151.087 195.586L154.557 194.718L153.804 191.703ZM153.194 185.916L153.841 182.877L149.656 181.986L150.104 186.242L153.194 185.916ZM177.864 196.576L176.023 199.08L176.04 199.093L176.058 199.105L177.864 196.576ZM194.31 215.459L191.546 216.879L191.554 216.894L191.562 216.909L194.31 215.459ZM194.615 268.757L197.437 270.06L197.443 270.046L197.449 270.032L194.615 268.757ZM178.778 288.858L176.845 286.425L176.845 286.425L178.778 288.858ZM154.413 301.041L153.568 298.05L153.559 298.053L153.55 298.055L154.413 301.041ZM75.5313 261.752H72.4235V264.86H75.5313V261.752ZM136.444 259.011L135.168 256.177L135.141 256.19L135.113 256.203L136.444 259.011ZM145.885 251.093L148.494 252.781L148.516 252.747L148.537 252.713L145.885 251.093ZM145.58 226.119L143.02 227.879L143.056 227.932L143.094 227.983L145.58 226.119ZM135.834 218.809L134.61 221.666L134.669 221.691L134.728 221.713L135.834 218.809ZM75.5313 216.068V212.96H72.4235V216.068H75.5313ZM75.5313 177.389H72.4235V180.496H75.5313V177.389ZM127.002 174.952L128.264 177.792L128.299 177.777L128.333 177.761L127.002 174.952ZM135.53 167.643L132.895 165.996L132.88 166.02L132.865 166.044L135.53 167.643ZM131.875 140.841L129.844 143.193L129.875 143.22L129.907 143.247L131.875 140.841ZM75.5313 135.055V131.947H72.4235V135.055H75.5313ZM29.9092 305V91.8069H23.6937V305H29.9092ZM26.8014 94.9146H120.911V88.6991H26.8014V94.9146ZM120.911 94.9146C135.245 94.9146 147.196 97.0073 156.864 101.068L159.271 95.3373C148.635 90.8703 135.815 88.6991 120.911 88.6991V94.9146ZM156.913 101.088C166.565 104.949 173.621 110.561 178.293 117.849L183.526 114.495C178.046 105.946 169.874 99.5782 159.222 95.3172L156.913 101.088ZM178.345 117.927C183.212 125.041 185.72 133.743 185.72 144.191H191.936C191.936 132.712 189.165 122.734 183.474 114.417L178.345 117.927ZM185.72 144.191C185.72 155.837 182.818 165.416 177.183 173.117L182.199 176.787C188.747 167.839 191.936 156.911 191.936 144.191H185.72ZM177.154 173.158C171.759 180.785 163.813 185.997 153.05 188.688L154.557 194.718C166.535 191.724 175.848 185.768 182.229 176.747L177.154 173.158ZM156.894 191.378L156.285 185.591L150.104 186.242L150.713 192.028L156.894 191.378ZM152.548 188.956C161.719 190.907 169.521 194.299 176.023 199.08L179.705 194.072C172.4 188.701 163.756 184.986 153.841 182.877L152.548 188.956ZM176.058 199.105C182.775 203.903 187.922 209.822 191.546 216.879L197.075 214.039C192.983 206.071 187.166 199.401 179.67 194.047L176.058 199.105ZM191.562 216.909C195.154 223.716 196.989 231.532 196.989 240.433H203.205C203.205 230.654 201.182 221.82 197.059 214.008L191.562 216.909ZM196.989 240.433C196.989 250.844 195.222 259.836 191.781 267.482L197.449 270.032C201.318 261.435 203.205 251.544 203.205 240.433H196.989ZM191.793 267.455C188.344 274.927 183.372 281.241 176.845 286.425L180.71 291.292C187.99 285.511 193.576 278.425 197.437 270.06L191.793 267.455ZM176.845 286.425C170.295 291.626 162.552 295.511 153.568 298.05L155.258 304.031C164.953 301.291 173.454 297.055 180.71 291.292L176.845 286.425ZM153.55 298.055C144.737 300.601 134.881 301.892 123.957 301.892V308.108C135.366 308.108 145.814 306.76 155.275 304.026L153.55 298.055ZM123.957 301.892H26.8014V308.108H123.957V301.892ZM75.5313 264.86H122.129V258.644H75.5313V264.86ZM122.129 264.86C128.129 264.86 133.386 263.898 137.774 261.82L135.113 256.203C131.785 257.779 127.5 258.644 122.129 258.644V264.86ZM137.719 261.845C142.278 259.794 145.909 256.777 148.494 252.781L143.276 249.404C141.395 252.312 138.731 254.574 135.168 256.177L137.719 261.845ZM148.537 252.713C151.12 248.487 152.343 243.537 152.343 237.996H146.127C146.127 242.608 145.117 246.389 143.233 249.472L148.537 252.713ZM152.343 237.996C152.343 232.759 150.965 228.119 148.067 224.254L143.094 227.983C145.068 230.616 146.127 233.894 146.127 237.996H152.343ZM148.141 224.358C145.497 220.511 141.699 217.717 136.941 215.905L134.728 221.713C138.498 223.149 141.197 225.229 143.02 227.879L148.141 224.358ZM137.059 215.953C132.319 213.921 126.806 212.96 120.606 212.96V219.176C126.183 219.176 130.822 220.042 134.61 221.666L137.059 215.953ZM120.606 212.96H75.5313V219.176H120.606V212.96ZM72.4235 216.068V261.752H78.6391V216.068H72.4235ZM75.5313 180.496H113.601V174.281H75.5313V180.496ZM113.601 180.496C119.183 180.496 124.107 179.64 128.264 177.792L125.74 172.112C122.588 173.513 118.578 174.281 113.601 174.281V180.496ZM128.333 177.761C132.631 175.725 135.993 172.912 138.195 169.242L132.865 166.044C131.412 168.465 129.089 170.525 125.672 172.144L128.333 177.761ZM138.165 169.29C140.553 165.47 141.683 161.02 141.683 156.069H135.468C135.468 160.052 134.568 163.318 132.895 165.996L138.165 169.29ZM141.683 156.069C141.683 148.772 139.128 142.76 133.843 138.436L129.907 143.247C133.556 146.232 135.468 150.372 135.468 156.069H141.683ZM133.906 138.489C128.647 133.947 121.084 131.947 111.774 131.947V138.162C120.331 138.162 126.169 140.02 129.844 143.193L133.906 138.489ZM111.774 131.947H75.5313V138.162H111.774V131.947ZM72.4235 135.055V177.389H78.6391V135.055H72.4235ZM242.788 300.736L241.124 303.361L241.161 303.384L241.198 303.407L242.788 300.736ZM223.296 278.199L220.471 279.493L220.482 279.518L220.493 279.542L223.296 278.199ZM216.596 143.278V140.17H213.488V143.278H216.596ZM265.63 143.278H268.738V140.17H265.63V143.278ZM268.676 253.225L271.526 251.985L271.526 251.985L268.676 253.225ZM277.813 264.189L276.119 266.794L276.166 266.825L276.214 266.854L277.813 264.189ZM304.005 265.712L302.878 262.815L302.85 262.826L302.822 262.838L304.005 265.712ZM313.142 259.925L315.339 262.122L315.339 262.122L313.142 259.925ZM319.233 251.093L322.08 252.338L322.094 252.307L322.107 252.276L319.233 251.093ZM321.365 143.278V140.17H318.257V143.278H321.365ZM370.399 143.278H373.507V140.17H370.399V143.278ZM370.399 305V308.108H373.507V305H370.399ZM324.41 305L321.309 305.199L321.496 308.108H324.41V305ZM322.279 271.803L321.124 268.917L319.033 269.754L319.177 272.002L322.279 271.803ZM331.415 268.148L334.379 269.084L336.355 262.825L330.261 265.263L331.415 268.148ZM319.233 288.858L321.469 291.017L321.487 290.998L321.505 290.979L319.233 288.858ZM298.827 303.173L300.069 306.022L300.1 306.008L300.13 305.994L298.827 303.173ZM273.549 305.242C262.013 305.242 252.334 302.801 244.378 298.066L241.198 303.407C250.298 308.823 261.126 311.458 273.549 311.458V305.242ZM244.452 298.112C236.667 293.174 230.542 286.129 226.099 276.856L220.493 279.542C225.39 289.761 232.26 297.74 241.124 303.361L244.452 298.112ZM226.121 276.904C221.883 267.658 219.703 256.447 219.703 243.174H213.488C213.488 257.108 215.775 269.247 220.471 279.493L226.121 276.904ZM219.703 243.174V143.278H213.488V243.174H219.703ZM216.596 146.386H265.63V140.17H216.596V146.386ZM262.522 143.278V236.474H268.738V143.278H262.522ZM262.522 236.474C262.522 243.284 263.585 249.311 265.826 254.464L271.526 251.985C269.705 247.798 268.738 242.658 268.738 236.474H262.522ZM265.826 254.464C268.086 259.662 271.52 263.805 276.119 266.794L279.506 261.583C275.984 259.293 273.326 256.127 271.526 251.985L265.826 254.464ZM276.214 266.854C280.846 269.633 286.297 270.951 292.431 270.951V264.736C287.196 264.736 282.901 263.617 279.411 261.524L276.214 266.854ZM292.431 270.951C297.044 270.951 301.311 270.182 305.188 268.585L302.822 262.838C299.795 264.084 296.347 264.736 292.431 264.736V270.951ZM305.131 268.608C309.132 267.052 312.559 264.903 315.339 262.122L310.944 257.727C308.852 259.82 306.187 261.528 302.878 262.815L305.131 268.608ZM315.339 262.122C318.238 259.223 320.495 255.96 322.08 252.338L316.386 249.847C315.128 252.722 313.324 255.347 310.944 257.727L315.339 262.122ZM322.107 252.276C323.696 248.417 324.473 244.255 324.473 239.824H318.257C318.257 243.515 317.613 246.865 316.359 249.909L322.107 252.276ZM324.473 239.824V143.278H318.257V239.824H324.473ZM321.365 146.386H370.399V140.17H321.365V146.386ZM367.292 143.278V305H373.507V143.278H367.292ZM370.399 301.892H324.41V308.108H370.399V301.892ZM327.512 304.801L325.38 271.604L319.177 272.002L321.309 305.199L327.512 304.801ZM323.433 274.688L332.57 271.034L330.261 265.263L321.124 268.917L323.433 274.688ZM328.452 267.212C326.159 274.473 322.34 280.975 316.961 286.738L321.505 290.979C327.496 284.559 331.799 277.254 334.379 269.084L328.452 267.212ZM316.997 286.7C311.597 292.293 305.117 296.847 297.525 300.351L300.13 305.994C308.375 302.189 315.499 297.2 321.469 291.017L316.997 286.7ZM297.585 300.324C290.072 303.599 282.07 305.242 273.549 305.242V311.458C282.895 311.458 291.745 309.65 300.069 306.022L297.585 300.324ZM390.684 305H387.576V308.108H390.684V305ZM390.684 276.98L388.232 275.07L387.576 275.913V276.98H390.684ZM476.57 166.729H479.678V157.683L474.118 164.819L476.57 166.729ZM476.57 182.871V185.979H479.678V182.871H476.57ZM390.684 182.871H387.576V185.979H390.684V182.871ZM390.684 143.278V140.17H387.576V143.278H390.684ZM524.691 143.278H527.798V140.17H524.691V143.278ZM524.691 172.516L527.164 174.397L527.798 173.563V172.516H524.691ZM443.373 279.417L440.277 279.686L440.974 287.704L445.846 281.298L443.373 279.417ZM442.154 265.407V262.299H438.765L439.058 265.676L442.154 265.407ZM527.432 265.407H530.539V262.299H527.432V265.407ZM527.432 305V308.108H530.539V305H527.432ZM393.791 305V276.98H387.576V305H393.791ZM393.135 278.89L479.022 168.639L474.118 164.819L388.232 275.07L393.135 278.89ZM473.462 166.729V182.871H479.678V166.729H473.462ZM476.57 179.763H390.684V185.979H476.57V179.763ZM393.791 182.871V143.278H387.576V182.871H393.791ZM390.684 146.386H524.691V140.17H390.684V146.386ZM521.583 143.278V172.516H527.798V143.278H521.583ZM522.217 170.634L440.899 277.535L445.846 281.298L527.164 174.397L522.217 170.634ZM446.469 279.148L445.251 265.138L439.058 265.676L440.277 279.686L446.469 279.148ZM442.154 268.515H527.432V262.299H442.154V268.515ZM524.324 265.407V305H530.539V265.407H524.324ZM527.432 301.892H390.684V308.108H527.432V301.892ZM561.179 305H558.071V308.108H561.179V305ZM561.179 102.467V99.3587H558.071V102.467H561.179ZM609.908 102.467H613.016V99.3587H609.908V102.467ZM609.908 305V308.108H613.016V305H609.908ZM532.55 185.916H529.442V189.024H532.55V185.916ZM532.55 143.278V140.17H529.442V143.278H532.55ZM641.278 143.278H644.386V140.17H641.278V143.278ZM641.278 185.916V189.024H644.386V185.916H641.278ZM564.286 305V102.467H558.071V305H564.286ZM561.179 105.574H609.908V99.3587H561.179V105.574ZM606.801 102.467V305H613.016V102.467H606.801ZM609.908 301.892H561.179V308.108H609.908V301.892ZM535.658 185.916V143.278H529.442V185.916H535.658ZM532.55 146.386H641.278V140.17H532.55V146.386ZM638.171 143.278V185.916H644.386V143.278H638.171ZM641.278 182.809H532.55V189.024H641.278V182.809ZM681.345 297.386L679.839 300.105L679.855 300.114L679.871 300.122L681.345 297.386ZM650.584 267.843L647.897 269.404L647.902 269.414L647.908 269.423L650.584 267.843ZM645.711 190.789L642.818 189.655L642.818 189.655L645.711 190.789ZM662.767 163.988L664.994 166.155L665.008 166.14L665.023 166.125L662.767 163.988ZM688.654 146.323L689.829 149.201L689.843 149.195L689.858 149.189L688.654 146.323ZM752.917 146.019L751.678 148.869L751.689 148.874L751.7 148.878L752.917 146.019ZM798.296 221.55L795.191 221.443L795.19 221.46L795.19 221.478L798.296 221.55ZM797.992 234.646V237.754H801.028L801.099 234.719L797.992 234.646ZM669.162 234.646L666.151 235.416L666.749 237.754H669.162V234.646ZM662.157 207.236V204.128H658.156L659.146 208.005L662.157 207.236ZM758.399 207.236L760.715 209.308L765.35 204.128H758.399V207.236ZM753.221 213.022H750.114V221.157L755.537 215.095L753.221 213.022ZM753.221 206.931H756.329V206.807L756.319 206.683L753.221 206.931ZM748.348 193.53L745.743 195.224L745.792 195.301L745.846 195.374L748.348 193.53ZM737.689 184.089L736.299 186.869L736.299 186.869L737.689 184.089ZM702.055 185.612L703.564 188.329L703.581 188.319L703.597 188.31L702.055 185.612ZM689.568 199.317L692.367 200.668L692.376 200.65L692.384 200.631L689.568 199.317ZM690.786 244.697L688.058 246.185L688.085 246.235L688.114 246.283L690.786 244.697ZM707.233 259.925L705.811 262.689L705.827 262.697L705.843 262.705L707.233 259.925ZM751.394 262.361L750.315 259.447L750.296 259.454L750.278 259.461L751.394 262.361ZM769.059 252.006L771.596 250.211L769.722 247.563L767.156 249.549L769.059 252.006ZM791.901 284.29L793.942 286.633L796.06 284.788L794.438 282.495L791.901 284.29ZM771.8 297.691L773.157 300.486L771.8 297.691ZM749.871 305.305L749.214 302.267L749.166 302.278L749.117 302.29L749.871 305.305ZM727.943 304.938C710.491 304.938 695.484 301.469 682.818 294.65L679.871 300.122C693.601 307.515 709.659 311.153 727.943 311.153V304.938ZM682.851 294.667C670.113 287.613 660.274 278.148 653.261 266.264L647.908 269.423C655.513 282.31 666.181 292.54 679.839 300.105L682.851 294.667ZM653.272 266.283C646.265 254.216 642.728 240.45 642.728 224.9H636.512C636.512 241.431 640.284 256.294 647.897 269.404L653.272 266.283ZM642.728 224.9C642.728 212.859 644.7 201.879 648.604 191.924L642.818 189.655C638.6 200.41 636.512 212.17 636.512 224.9H642.728ZM648.604 191.924C652.524 181.93 657.99 173.353 664.994 166.155L660.539 161.821C652.924 169.648 647.02 178.938 642.818 189.655L648.604 191.924ZM665.023 166.125C672.025 158.734 680.284 153.096 689.829 149.201L687.48 143.446C677.126 147.672 668.127 153.811 660.51 161.851L665.023 166.125ZM689.858 149.189C699.596 145.098 710.249 143.035 721.852 143.035V136.82C709.495 136.82 698.016 139.021 687.451 143.458L689.858 149.189ZM721.852 143.035C732.845 143.035 742.772 144.997 751.678 148.869L754.156 143.169C744.382 138.919 733.598 136.82 721.852 136.82V143.035ZM751.7 148.878C760.862 152.777 768.727 158.22 775.327 165.208L779.846 160.94C772.639 153.31 764.058 147.382 754.134 143.159L751.7 148.878ZM775.327 165.208C781.926 172.195 786.989 180.458 790.506 190.034L796.341 187.89C792.549 177.568 787.053 168.572 779.846 160.94L775.327 165.208ZM790.506 190.034C794.008 199.566 795.584 210.023 795.191 221.443L801.402 221.657C801.821 209.524 800.149 198.256 796.341 187.89L790.506 190.034ZM795.19 221.478L794.885 234.574L801.099 234.719L801.403 221.622L795.19 221.478ZM797.992 231.538H669.162V237.754H797.992V231.538ZM672.173 233.877L665.168 206.466L659.146 208.005L666.151 235.416L672.173 233.877ZM662.157 210.343H758.399V204.128H662.157V210.343ZM756.083 205.163L750.905 210.95L755.537 215.095L760.715 209.308L756.083 205.163ZM756.329 213.022V206.931H750.114V213.022H756.329ZM756.319 206.683C755.87 201.068 754.058 196.04 750.85 191.687L745.846 195.374C748.324 198.736 749.761 202.642 750.123 207.179L756.319 206.683ZM750.954 191.837C748.003 187.297 744.024 183.782 739.079 181.309L736.299 186.869C740.287 188.863 743.414 191.642 745.743 195.224L750.954 191.837ZM739.079 181.309C734.124 178.832 728.561 177.631 722.461 177.631V183.847C727.73 183.847 732.32 184.879 736.299 186.869L739.079 181.309ZM722.461 177.631C714.114 177.631 706.757 179.346 700.513 182.914L703.597 188.31C708.723 185.381 714.97 183.847 722.461 183.847V177.631ZM700.546 182.895C694.449 186.282 689.85 191.363 686.752 198.003L692.384 200.631C694.971 195.088 698.697 191.033 703.564 188.329L700.546 182.895ZM686.769 197.966C683.667 204.392 682.196 212.196 682.196 221.246H688.412C688.412 212.833 689.784 206.018 692.367 200.668L686.769 197.966ZM682.196 221.246C682.196 230.61 684.115 238.956 688.058 246.185L693.515 243.209C690.148 237.037 688.412 229.748 688.412 221.246H682.196ZM688.114 246.283C692.287 253.312 698.217 258.783 705.811 262.689L708.654 257.161C702.035 253.757 697.001 249.076 693.458 243.11L688.114 246.283ZM705.843 262.705C713.668 266.617 722.792 268.515 733.12 268.515V262.299C723.55 262.299 715.417 260.542 708.622 257.145L705.843 262.705ZM733.12 268.515C740.324 268.515 746.806 267.456 752.51 265.262L750.278 259.461C745.424 261.328 739.724 262.299 733.12 262.299V268.515ZM752.473 265.276C758.337 263.104 764.501 259.465 770.961 254.464L767.156 249.549C761.028 254.293 755.416 257.558 750.315 259.447L752.473 265.276ZM766.522 253.801L789.364 286.085L794.438 282.495L771.596 250.211L766.522 253.801ZM789.86 281.946C783.76 287.258 777.288 291.57 770.442 294.895L773.157 300.486C780.524 296.908 787.452 292.285 793.942 286.633L789.86 281.946ZM770.442 294.895C763.552 298.241 756.478 300.697 749.214 302.267L750.528 308.342C758.29 306.664 765.834 304.043 773.157 300.486L770.442 294.895ZM749.117 302.29C742.047 304.057 734.99 304.938 727.943 304.938V311.153C735.514 311.153 743.077 310.207 750.625 308.32L749.117 302.29ZM859.494 257.488L856.705 258.86L858.557 262.627L861.62 259.756L859.494 257.488ZM841.525 220.941L839.297 218.774L837.769 220.345L838.736 222.312L841.525 220.941ZM917.056 143.278V140.17H915.744L914.829 141.111L917.056 143.278ZM981.319 143.278L983.444 145.545L989.178 140.17H981.319V143.278ZM812.592 305H809.484V308.108H812.592V305ZM812.592 79.6244V76.5166H809.484V79.6244H812.592ZM861.322 79.6244H864.429V76.5166H861.322V79.6244ZM861.322 305V308.108H864.429V305H861.322ZM922.234 305L919.775 306.9L920.708 308.108H922.234V305ZM865.281 231.296L863.371 228.844L860.929 230.746L862.822 233.196L865.281 231.296ZM899.696 204.495L902.127 202.558L900.211 200.155L897.787 202.043L899.696 204.495ZM979.796 305V308.108H986.247L982.226 303.063L979.796 305ZM862.283 256.117L844.314 219.57L838.736 222.312L856.705 258.86L862.283 256.117ZM843.753 223.108L919.284 145.445L914.829 141.111L839.297 218.774L843.753 223.108ZM917.056 146.386H981.319V140.17H917.056V146.386ZM979.193 141.011L857.369 255.221L861.62 259.756L983.444 145.545L979.193 141.011ZM815.7 305V79.6244H809.484V305H815.7ZM812.592 82.7322H861.322V76.5166H812.592V82.7322ZM858.214 79.6244V305H864.429V79.6244H858.214ZM861.322 301.892H812.592V308.108H861.322V301.892ZM924.693 303.1L867.74 229.396L862.822 233.196L919.775 306.9L924.693 303.1ZM867.19 233.748L901.606 206.947L897.787 202.043L863.371 228.844L867.19 233.748ZM897.266 206.432L977.366 306.937L982.226 303.063L902.127 202.558L897.266 206.432ZM979.796 301.892H922.234V308.108H979.796V301.892Z" fill="black"/>
<path d="M49.5963 305V91.8069H143.706C158.325 91.8069 170.71 93.9388 180.862 98.2027C191.014 102.263 198.628 108.253 203.705 116.172C208.984 123.887 211.623 133.227 211.623 144.191C211.623 156.374 208.578 166.627 202.486 174.952C196.598 183.277 187.969 188.861 176.599 191.703L175.989 185.916C185.532 187.947 193.756 191.5 200.659 196.576C207.765 201.652 213.247 207.946 217.105 215.459C220.963 222.768 222.892 231.093 222.892 240.433C222.892 251.194 221.065 260.636 217.41 268.757C213.755 276.676 208.476 283.376 201.573 288.858C194.669 294.34 186.548 298.401 177.208 301.041C168.071 303.68 157.919 305 146.752 305H49.5963ZM98.3262 261.752H144.924C150.609 261.752 155.381 260.839 159.239 259.011C163.299 257.184 166.446 254.544 168.68 251.093C170.913 247.438 172.03 243.072 172.03 237.996C172.03 233.326 170.812 229.367 168.375 226.119C166.142 222.87 162.893 220.433 158.629 218.809C154.366 216.982 149.29 216.068 143.401 216.068H98.3262V261.752ZM98.3262 177.389H136.396C141.675 177.389 146.142 176.577 149.797 174.952C153.655 173.125 156.497 170.688 158.325 167.643C160.355 164.394 161.37 160.536 161.37 156.069C161.37 149.572 159.137 144.496 154.67 140.841C150.203 136.983 143.503 135.055 134.569 135.055H98.3262V177.389ZM297.866 308.35C285.887 308.35 275.633 305.812 267.106 300.736C258.781 295.457 252.284 287.945 247.614 278.199C243.147 268.453 240.913 256.778 240.913 243.174V143.278H289.948V236.474C289.948 242.971 290.963 248.555 292.993 253.225C295.024 257.894 298.069 261.549 302.13 264.189C306.191 266.625 311.064 267.843 316.749 267.843C321.013 267.843 324.871 267.133 328.323 265.712C331.977 264.29 335.023 262.361 337.459 259.925C340.099 257.285 342.129 254.341 343.551 251.093C344.972 247.641 345.683 243.885 345.683 239.824V143.278H394.717V305H348.728L346.596 271.803L355.733 268.148C353.297 275.864 349.236 282.767 343.551 288.858C337.866 294.746 331.064 299.518 323.145 303.173C315.226 306.624 306.8 308.35 297.866 308.35ZM416.524 305V276.98L502.41 166.729V182.871H416.524V143.278H550.531V172.516L469.213 279.417L467.995 265.407H553.272V305H416.524ZM588.542 305V102.467H637.272V305H588.542ZM559.913 185.916V143.278H668.642V185.916H559.913ZM756.829 308.046C738.961 308.046 723.429 304.492 710.231 297.386C697.033 290.076 686.78 280.229 679.47 267.843C672.161 255.255 668.506 240.941 668.506 224.9C668.506 212.515 670.536 201.144 674.597 190.789C678.658 180.434 684.343 171.5 691.653 163.988C698.962 156.272 707.591 150.384 717.54 146.323C727.692 142.06 738.758 139.928 750.738 139.928C762.108 139.928 772.463 141.958 781.803 146.019C791.346 150.08 799.569 155.765 806.472 163.074C813.376 170.384 818.655 179.013 822.31 188.962C825.964 198.911 827.589 209.774 827.183 221.55L826.878 234.646H698.048L691.044 207.236H787.285L782.107 213.022V206.931C781.701 201.855 780.077 197.388 777.234 193.53C774.595 189.47 771.042 186.322 766.575 184.089C762.108 181.856 757.032 180.739 751.347 180.739C743.428 180.739 736.626 182.363 730.941 185.612C725.459 188.657 721.297 193.226 718.454 199.317C715.612 205.205 714.19 212.515 714.19 221.246C714.19 230.179 716.018 237.996 719.672 244.697C723.53 251.194 729.012 256.27 736.119 259.925C743.428 263.58 752.057 265.407 762.006 265.407C768.91 265.407 775.001 264.392 780.28 262.361C785.762 260.331 791.65 256.879 797.945 252.006L820.787 284.29C814.493 289.772 807.792 294.239 800.686 297.691C793.579 301.142 786.27 303.68 778.757 305.305C771.448 307.132 764.138 308.046 756.829 308.046ZM889.903 257.488L871.934 220.941L947.465 143.278H1011.73L889.903 257.488ZM843.001 305V79.6244H891.731V305H843.001ZM952.643 305L895.69 231.296L930.105 204.495L1010.21 305H952.643Z" fill="#BACF46"/>
<path d="M49.5963 305H46.4886V308.108H49.5963V305ZM49.5963 91.8069V88.6991H46.4886V91.8069H49.5963ZM180.862 98.2027L179.659 101.068L179.684 101.078L179.708 101.088L180.862 98.2027ZM203.705 116.172L201.088 117.849L201.113 117.888L201.14 117.927L203.705 116.172ZM202.486 174.952L199.978 173.117L199.963 173.137L199.949 173.158L202.486 174.952ZM176.599 191.703L173.508 192.028L173.882 195.586L177.352 194.718L176.599 191.703ZM175.989 185.916L176.636 182.877L172.451 181.986L172.899 186.242L175.989 185.916ZM200.659 196.576L198.818 199.08L198.835 199.093L198.853 199.105L200.659 196.576ZM217.105 215.459L214.341 216.879L214.349 216.894L214.357 216.909L217.105 215.459ZM217.41 268.757L220.232 270.06L220.238 270.046L220.244 270.032L217.41 268.757ZM201.573 288.858L199.64 286.425L199.64 286.425L201.573 288.858ZM177.208 301.041L176.362 298.05L176.354 298.053L176.345 298.055L177.208 301.041ZM98.3262 261.752H95.2184V264.86H98.3262V261.752ZM159.239 259.011L157.963 256.177L157.936 256.19L157.908 256.203L159.239 259.011ZM168.68 251.093L171.289 252.781L171.311 252.747L171.332 252.713L168.68 251.093ZM168.375 226.119L165.814 227.879L165.851 227.932L165.889 227.983L168.375 226.119ZM158.629 218.809L157.405 221.666L157.464 221.691L157.523 221.713L158.629 218.809ZM98.3262 216.068V212.96H95.2184V216.068H98.3262ZM98.3262 177.389H95.2184V180.496H98.3262V177.389ZM149.797 174.952L151.059 177.792L151.094 177.777L151.128 177.761L149.797 174.952ZM158.325 167.643L155.689 165.996L155.674 166.02L155.66 166.044L158.325 167.643ZM154.67 140.841L152.639 143.193L152.67 143.22L152.702 143.247L154.67 140.841ZM98.3262 135.055V131.947H95.2184V135.055H98.3262ZM52.7041 305V91.8069H46.4886V305H52.7041ZM49.5963 94.9146H143.706V88.6991H49.5963V94.9146ZM143.706 94.9146C158.04 94.9146 169.991 97.0073 179.659 101.068L182.066 95.3373C171.43 90.8703 158.61 88.6991 143.706 88.6991V94.9146ZM179.708 101.088C189.36 104.949 196.416 110.561 201.088 117.849L206.321 114.495C200.841 105.946 192.669 99.5782 182.017 95.3172L179.708 101.088ZM201.14 117.927C206.007 125.041 208.515 133.743 208.515 144.191H214.731C214.731 132.712 211.96 122.734 206.269 114.417L201.14 117.927ZM208.515 144.191C208.515 155.837 205.613 165.416 199.978 173.117L204.994 176.787C211.542 167.839 214.731 156.911 214.731 144.191H208.515ZM199.949 173.158C194.554 180.785 186.608 185.997 175.845 188.688L177.352 194.718C189.33 191.724 198.642 185.768 205.024 176.747L199.949 173.158ZM179.689 191.378L179.08 185.591L172.899 186.242L173.508 192.028L179.689 191.378ZM175.343 188.956C184.514 190.907 192.316 194.299 198.818 199.08L202.5 194.072C195.195 188.701 186.551 184.986 176.636 182.877L175.343 188.956ZM198.853 199.105C205.57 203.903 210.717 209.822 214.341 216.879L219.87 214.039C215.778 206.071 209.961 199.401 202.465 194.047L198.853 199.105ZM214.357 216.909C217.949 223.716 219.784 231.532 219.784 240.433H226C226 230.654 223.977 221.82 219.854 214.008L214.357 216.909ZM219.784 240.433C219.784 250.844 218.017 259.836 214.576 267.482L220.244 270.032C224.113 261.435 226 251.544 226 240.433H219.784ZM214.588 267.455C211.139 274.927 206.167 281.241 199.64 286.425L203.505 291.292C210.785 285.511 216.371 278.425 220.232 270.06L214.588 267.455ZM199.64 286.425C193.09 291.626 185.347 295.511 176.362 298.05L178.053 304.031C187.748 301.291 196.249 297.055 203.505 291.292L199.64 286.425ZM176.345 298.055C167.532 300.601 157.676 301.892 146.752 301.892V308.108C158.161 308.108 168.609 306.76 178.07 304.026L176.345 298.055ZM146.752 301.892H49.5963V308.108H146.752V301.892ZM98.3262 264.86H144.924V258.644H98.3262V264.86ZM144.924 264.86C150.924 264.86 156.181 263.898 160.569 261.82L157.908 256.203C154.58 257.779 150.295 258.644 144.924 258.644V264.86ZM160.514 261.845C165.073 259.794 168.704 256.777 171.289 252.781L166.071 249.404C164.189 252.312 161.526 254.574 157.963 256.177L160.514 261.845ZM171.332 252.713C173.915 248.487 175.138 243.537 175.138 237.996H168.922C168.922 242.608 167.912 246.389 166.028 249.472L171.332 252.713ZM175.138 237.996C175.138 232.759 173.76 228.119 170.862 224.254L165.889 227.983C167.863 230.616 168.922 233.894 168.922 237.996H175.138ZM170.936 224.358C168.291 220.511 164.494 217.717 159.736 215.905L157.523 221.713C161.293 223.149 163.992 225.229 165.814 227.879L170.936 224.358ZM159.854 215.953C155.114 213.921 149.601 212.96 143.401 212.96V219.176C148.978 219.176 153.617 220.042 157.405 221.666L159.854 215.953ZM143.401 212.96H98.3262V219.176H143.401V212.96ZM95.2184 216.068V261.752H101.434V216.068H95.2184ZM98.3262 180.496H136.396V174.281H98.3262V180.496ZM136.396 180.496C141.978 180.496 146.902 179.64 151.059 177.792L148.535 172.112C145.383 173.513 141.373 174.281 136.396 174.281V180.496ZM151.128 177.761C155.426 175.725 158.788 172.912 160.99 169.242L155.66 166.044C154.207 168.465 151.884 170.525 148.467 172.144L151.128 177.761ZM160.96 169.29C163.348 165.47 164.478 161.02 164.478 156.069H158.263C158.263 160.052 157.363 163.318 155.689 165.996L160.96 169.29ZM164.478 156.069C164.478 148.772 161.923 142.76 156.638 138.436L152.702 143.247C156.351 146.232 158.263 150.372 158.263 156.069H164.478ZM156.701 138.489C151.442 133.947 143.879 131.947 134.569 131.947V138.162C143.126 138.162 148.964 140.02 152.639 143.193L156.701 138.489ZM134.569 131.947H98.3262V138.162H134.569V131.947ZM95.2184 135.055V177.389H101.434V135.055H95.2184ZM267.106 300.736L265.441 303.361L265.478 303.384L265.516 303.407L267.106 300.736ZM247.614 278.199L244.789 279.493L244.8 279.518L244.811 279.542L247.614 278.199ZM240.913 143.278V140.17H237.806V143.278H240.913ZM289.948 143.278H293.056V140.17H289.948V143.278ZM292.993 253.225L295.843 251.985L295.843 251.985L292.993 253.225ZM302.13 264.189L300.437 266.794L300.483 266.825L300.531 266.854L302.13 264.189ZM328.323 265.712L327.196 262.815L327.168 262.826L327.139 262.838L328.323 265.712ZM337.459 259.925L339.657 262.122L339.657 262.122L337.459 259.925ZM343.551 251.093L346.398 252.338L346.411 252.307L346.424 252.276L343.551 251.093ZM345.683 143.278V140.17H342.575V143.278H345.683ZM394.717 143.278H397.825V140.17H394.717V143.278ZM394.717 305V308.108H397.825V305H394.717ZM348.728 305L345.627 305.199L345.814 308.108H348.728V305ZM346.596 271.803L345.442 268.917L343.351 269.754L343.495 272.002L346.596 271.803ZM355.733 268.148L358.697 269.084L360.673 262.825L354.579 265.263L355.733 268.148ZM343.551 288.858L345.786 291.017L345.805 290.998L345.823 290.979L343.551 288.858ZM323.145 303.173L324.387 306.022L324.417 306.008L324.447 305.994L323.145 303.173ZM297.866 305.242C286.33 305.242 276.651 302.801 268.695 298.066L265.516 303.407C274.615 308.823 285.444 311.458 297.866 311.458V305.242ZM268.77 298.112C260.984 293.174 254.86 286.129 250.416 276.856L244.811 279.542C249.708 289.761 256.578 297.74 265.441 303.361L268.77 298.112ZM250.439 276.904C246.201 267.658 244.021 256.447 244.021 243.174H237.806C237.806 257.108 240.092 269.247 244.789 279.493L250.439 276.904ZM244.021 243.174V143.278H237.806V243.174H244.021ZM240.913 146.386H289.948V140.17H240.913V146.386ZM286.84 143.278V236.474H293.056V143.278H286.84ZM286.84 236.474C286.84 243.284 287.903 249.311 290.143 254.464L295.843 251.985C294.023 247.798 293.056 242.658 293.056 236.474H286.84ZM290.143 254.464C292.404 259.662 295.838 263.805 300.437 266.794L303.824 261.583C300.301 259.293 297.644 256.127 295.843 251.985L290.143 254.464ZM300.531 266.854C305.164 269.633 310.614 270.951 316.749 270.951V264.736C311.514 264.736 307.218 263.617 303.729 261.524L300.531 266.854ZM316.749 270.951C321.362 270.951 325.629 270.182 329.506 268.585L327.139 262.838C324.113 264.084 320.664 264.736 316.749 264.736V270.951ZM329.449 268.608C333.45 267.052 336.876 264.903 339.657 262.122L335.262 257.727C333.169 259.82 330.505 261.528 327.196 262.815L329.449 268.608ZM339.657 262.122C342.556 259.223 344.813 255.96 346.398 252.338L340.703 249.847C339.446 252.722 337.642 255.347 335.262 257.727L339.657 262.122ZM346.424 252.276C348.013 248.417 348.79 244.255 348.79 239.824H342.575C342.575 243.515 341.931 246.865 340.677 249.909L346.424 252.276ZM348.79 239.824V143.278H342.575V239.824H348.79ZM345.683 146.386H394.717V140.17H345.683V146.386ZM391.609 143.278V305H397.825V143.278H391.609ZM394.717 301.892H348.728V308.108H394.717V301.892ZM351.83 304.801L349.698 271.604L343.495 272.002L345.627 305.199L351.83 304.801ZM347.75 274.688L356.887 271.034L354.579 265.263L345.442 268.917L347.75 274.688ZM352.77 267.212C350.477 274.473 346.658 280.975 341.279 286.738L345.823 290.979C351.814 284.559 356.117 277.254 358.697 269.084L352.77 267.212ZM341.315 286.7C335.914 292.293 329.435 296.847 321.843 300.351L324.447 305.994C332.692 302.189 339.817 297.2 345.786 291.017L341.315 286.7ZM321.903 300.324C314.39 303.599 306.388 305.242 297.866 305.242V311.458C307.213 311.458 316.063 309.65 324.387 306.022L321.903 300.324ZM416.524 305H413.416V308.108H416.524V305ZM416.524 276.98L414.072 275.07L413.416 275.913V276.98H416.524ZM502.41 166.729H505.518V157.683L499.959 164.819L502.41 166.729ZM502.41 182.871V185.979H505.518V182.871H502.41ZM416.524 182.871H413.416V185.979H416.524V182.871ZM416.524 143.278V140.17H413.416V143.278H416.524ZM550.531 143.278H553.639V140.17H550.531V143.278ZM550.531 172.516L553.005 174.397L553.639 173.563V172.516H550.531ZM469.213 279.417L466.117 279.686L466.814 287.704L471.687 281.298L469.213 279.417ZM467.995 265.407V262.299H464.605L464.899 265.676L467.995 265.407ZM553.272 265.407H556.38V262.299H553.272V265.407ZM553.272 305V308.108H556.38V305H553.272ZM419.632 305V276.98H413.416V305H419.632ZM418.976 278.89L504.862 168.639L499.959 164.819L414.072 275.07L418.976 278.89ZM499.303 166.729V182.871H505.518V166.729H499.303ZM502.41 179.763H416.524V185.979H502.41V179.763ZM419.632 182.871V143.278H413.416V182.871H419.632ZM416.524 146.386H550.531V140.17H416.524V146.386ZM547.423 143.278V172.516H553.639V143.278H547.423ZM548.058 170.634L466.74 277.535L471.687 281.298L553.005 174.397L548.058 170.634ZM472.309 279.148L471.091 265.138L464.899 265.676L466.117 279.686L472.309 279.148ZM467.995 268.515H553.272V262.299H467.995V268.515ZM550.164 265.407V305H556.38V265.407H550.164ZM553.272 301.892H416.524V308.108H553.272V301.892ZM588.542 305H585.434V308.108H588.542V305ZM588.542 102.467V99.3587H585.434V102.467H588.542ZM637.272 102.467H640.38V99.3587H637.272V102.467ZM637.272 305V308.108H640.38V305H637.272ZM559.913 185.916H556.805V189.024H559.913V185.916ZM559.913 143.278V140.17H556.805V143.278H559.913ZM668.642 143.278H671.749V140.17H668.642V143.278ZM668.642 185.916V189.024H671.749V185.916H668.642ZM591.65 305V102.467H585.434V305H591.65ZM588.542 105.574H637.272V99.3587H588.542V105.574ZM634.164 102.467V305H640.38V102.467H634.164ZM637.272 301.892H588.542V308.108H637.272V301.892ZM563.021 185.916V143.278H556.805V185.916H563.021ZM559.913 146.386H668.642V140.17H559.913V146.386ZM665.534 143.278V185.916H671.749V143.278H665.534ZM668.642 182.809H559.913V189.024H668.642V182.809ZM710.231 297.386L708.725 300.105L708.741 300.114L708.758 300.122L710.231 297.386ZM679.47 267.843L676.783 269.404L676.788 269.414L676.794 269.423L679.47 267.843ZM674.597 190.789L671.704 189.655L671.704 189.655L674.597 190.789ZM691.653 163.988L693.88 166.155L693.895 166.14L693.909 166.125L691.653 163.988ZM717.54 146.323L718.715 149.201L718.729 149.195L718.744 149.189L717.54 146.323ZM781.803 146.019L780.564 148.869L780.575 148.874L780.586 148.878L781.803 146.019ZM827.183 221.55L824.077 221.443L824.076 221.46L824.076 221.478L827.183 221.55ZM826.878 234.646V237.754H829.914L829.985 234.719L826.878 234.646ZM698.048 234.646L695.037 235.416L695.635 237.754H698.048V234.646ZM691.044 207.236V204.128H687.042L688.033 208.005L691.044 207.236ZM787.285 207.236L789.601 209.308L794.236 204.128H787.285V207.236ZM782.107 213.022H779V221.157L784.423 215.095L782.107 213.022ZM782.107 206.931H785.215V206.807L785.205 206.683L782.107 206.931ZM777.234 193.53L774.629 195.224L774.678 195.301L774.733 195.374L777.234 193.53ZM766.575 184.089L765.185 186.869L765.185 186.869L766.575 184.089ZM730.941 185.612L732.45 188.329L732.467 188.319L732.483 188.31L730.941 185.612ZM718.454 199.317L721.253 200.668L721.262 200.65L721.27 200.631L718.454 199.317ZM719.672 244.697L716.944 246.185L716.971 246.235L717 246.283L719.672 244.697ZM736.119 259.925L734.697 262.689L734.713 262.697L734.729 262.705L736.119 259.925ZM780.28 262.361L779.201 259.447L779.183 259.454L779.164 259.461L780.28 262.361ZM797.945 252.006L800.482 250.211L798.608 247.563L796.042 249.549L797.945 252.006ZM820.787 284.29L822.828 286.633L824.946 284.788L823.324 282.495L820.787 284.29ZM800.686 297.691L802.044 300.486L800.686 297.691ZM778.757 305.305L778.101 302.267L778.052 302.278L778.004 302.29L778.757 305.305ZM756.829 304.938C739.377 304.938 724.37 301.469 711.704 294.65L708.758 300.122C722.487 307.515 738.545 311.153 756.829 311.153V304.938ZM711.737 294.667C698.999 287.613 689.16 278.148 682.147 266.264L676.794 269.423C684.399 282.31 695.067 292.54 708.725 300.105L711.737 294.667ZM682.158 266.283C675.151 254.216 671.614 240.45 671.614 224.9H665.398C665.398 241.431 669.17 256.294 676.783 269.404L682.158 266.283ZM671.614 224.9C671.614 212.859 673.587 201.879 677.49 191.924L671.704 189.655C667.486 200.41 665.398 212.17 665.398 224.9H671.614ZM677.49 191.924C681.41 181.93 686.876 173.353 693.88 166.155L689.425 161.821C681.81 169.648 675.906 178.938 671.704 189.655L677.49 191.924ZM693.909 166.125C700.911 158.734 709.17 153.096 718.715 149.201L716.366 143.446C706.013 147.672 697.013 153.811 689.397 161.851L693.909 166.125ZM718.744 149.189C728.482 145.098 739.135 143.035 750.738 143.035V136.82C738.382 136.82 726.902 139.021 716.337 143.458L718.744 149.189ZM750.738 143.035C761.731 143.035 771.658 144.997 780.564 148.869L783.042 143.169C773.268 138.919 762.485 136.82 750.738 136.82V143.035ZM780.586 148.878C789.748 152.777 797.613 158.22 804.213 165.208L808.732 160.94C801.525 153.31 792.944 147.382 783.02 143.159L780.586 148.878ZM804.213 165.208C810.812 172.195 815.875 180.458 819.392 190.034L825.227 187.89C821.435 177.568 815.94 168.572 808.732 160.94L804.213 165.208ZM819.392 190.034C822.894 199.566 824.47 210.023 824.077 221.443L830.289 221.657C830.707 209.524 829.035 198.256 825.227 187.89L819.392 190.034ZM824.076 221.478L823.771 234.574L829.985 234.719L830.29 221.622L824.076 221.478ZM826.878 231.538H698.048V237.754H826.878V231.538ZM701.059 233.877L694.055 206.466L688.033 208.005L695.037 235.416L701.059 233.877ZM691.044 210.343H787.285V204.128H691.044V210.343ZM784.969 205.163L779.791 210.95L784.423 215.095L789.601 209.308L784.969 205.163ZM785.215 213.022V206.931H779V213.022H785.215ZM785.205 206.683C784.756 201.068 782.944 196.04 779.736 191.687L774.733 195.374C777.21 198.736 778.647 202.642 779.01 207.179L785.205 206.683ZM779.84 191.837C776.89 187.297 772.91 183.782 767.965 181.309L765.185 186.869C769.173 188.863 772.3 191.642 774.629 195.224L779.84 191.837ZM767.965 181.309C763.01 178.832 757.447 177.631 751.347 177.631V183.847C756.617 183.847 761.206 184.879 765.185 186.869L767.965 181.309ZM751.347 177.631C743 177.631 735.643 179.346 729.399 182.914L732.483 188.31C737.609 185.381 743.856 183.847 751.347 183.847V177.631ZM729.432 182.895C723.335 186.282 718.736 191.363 715.638 198.003L721.27 200.631C723.857 195.088 727.583 191.033 732.45 188.329L729.432 182.895ZM715.655 197.966C712.553 204.392 711.082 212.196 711.082 221.246H717.298C717.298 212.833 718.67 206.018 721.253 200.668L715.655 197.966ZM711.082 221.246C711.082 230.61 713.001 238.956 716.944 246.185L722.401 243.209C719.034 237.037 717.298 229.748 717.298 221.246H711.082ZM717 246.283C721.173 253.312 727.103 258.783 734.697 262.689L737.54 257.161C730.922 253.757 725.887 249.076 722.345 243.11L717 246.283ZM734.729 262.705C742.554 266.617 751.678 268.515 762.006 268.515V262.299C752.437 262.299 744.303 260.542 737.508 257.145L734.729 262.705ZM762.006 268.515C769.21 268.515 775.692 267.456 781.396 265.262L779.164 259.461C774.31 261.328 768.61 262.299 762.006 262.299V268.515ZM781.359 265.276C787.223 263.104 793.387 259.465 799.847 254.464L796.042 249.549C789.914 254.293 784.302 257.558 779.201 259.447L781.359 265.276ZM795.408 253.801L818.25 286.085L823.324 282.495L800.482 250.211L795.408 253.801ZM818.746 281.946C812.647 287.258 806.174 291.57 799.328 294.895L802.044 300.486C809.41 296.908 816.338 292.285 822.828 286.633L818.746 281.946ZM799.328 294.895C792.438 298.241 785.364 300.697 778.101 302.267L779.414 308.342C787.176 306.664 794.72 304.043 802.044 300.486L799.328 294.895ZM778.004 302.29C770.933 304.057 763.876 304.938 756.829 304.938V311.153C764.4 311.153 771.963 310.207 779.511 308.32L778.004 302.29ZM889.903 257.488L887.114 258.86L888.966 262.627L892.029 259.756L889.903 257.488ZM871.934 220.941L869.706 218.774L868.178 220.345L869.145 222.312L871.934 220.941ZM947.465 143.278V140.17H946.153L945.238 141.111L947.465 143.278ZM1011.73 143.278L1013.85 145.545L1019.59 140.17H1011.73V143.278ZM843.001 305H839.893V308.108H843.001V305ZM843.001 79.6244V76.5166H839.893V79.6244H843.001ZM891.731 79.6244H894.838V76.5166H891.731V79.6244ZM891.731 305V308.108H894.838V305H891.731ZM952.643 305L950.184 306.9L951.117 308.108H952.643V305ZM895.69 231.296L893.78 228.844L891.338 230.746L893.231 233.196L895.69 231.296ZM930.105 204.495L932.536 202.558L930.62 200.155L928.196 202.043L930.105 204.495ZM1010.21 305V308.108H1016.66L1012.64 303.063L1010.21 305ZM892.692 256.117L874.723 219.57L869.145 222.312L887.114 258.86L892.692 256.117ZM874.162 223.108L949.693 145.445L945.238 141.111L869.706 218.774L874.162 223.108ZM947.465 146.386H1011.73V140.17H947.465V146.386ZM1009.6 141.011L887.778 255.221L892.029 259.756L1013.85 145.545L1009.6 141.011ZM846.109 305V79.6244H839.893V305H846.109ZM843.001 82.7322H891.731V76.5166H843.001V82.7322ZM888.623 79.6244V305H894.838V79.6244H888.623ZM891.731 301.892H843.001V308.108H891.731V301.892ZM955.102 303.1L898.149 229.396L893.231 233.196L950.184 306.9L955.102 303.1ZM897.599 233.748L932.015 206.947L928.196 202.043L893.78 228.844L897.599 233.748ZM927.675 206.432L1007.77 306.937L1012.64 303.063L932.536 202.558L927.675 206.432ZM1010.21 301.892H952.643V308.108H1010.21V301.892Z" fill="black"/>
<path d="M41.161 305V91.8069H135.271C149.89 91.8069 162.275 93.9388 172.427 98.2027C182.579 102.263 190.193 108.253 195.269 116.172C200.548 123.887 203.188 133.227 203.188 144.191C203.188 156.374 200.142 166.627 194.051 174.952C188.163 183.277 179.534 188.861 168.163 191.703L167.554 185.916C177.097 187.947 185.32 191.5 192.224 196.576C199.33 201.652 204.812 207.946 208.67 215.459C212.528 222.768 214.457 231.093 214.457 240.433C214.457 251.194 212.629 260.636 208.975 268.757C205.32 276.676 200.041 283.376 193.137 288.858C186.234 294.34 178.112 298.401 168.772 301.041C159.636 303.68 149.483 305 138.316 305H41.161ZM89.8909 261.752H136.489C142.174 261.752 146.945 260.839 150.803 259.011C154.864 257.184 158.011 254.544 160.245 251.093C162.478 247.438 163.595 243.072 163.595 237.996C163.595 233.326 162.377 229.367 159.94 226.119C157.707 222.87 154.458 220.433 150.194 218.809C145.93 216.982 140.854 216.068 134.966 216.068H89.8909V261.752ZM89.8909 177.389H127.961C133.24 177.389 137.707 176.577 141.362 174.952C145.22 173.125 148.062 170.688 149.89 167.643C151.92 164.394 152.935 160.536 152.935 156.069C152.935 149.572 150.702 144.496 146.235 140.841C141.768 136.983 135.068 135.055 126.134 135.055H89.8909V177.389ZM287.908 308.35C275.929 308.35 265.675 305.812 257.148 300.736C248.823 295.457 242.326 287.945 237.656 278.199C233.189 268.453 230.955 256.778 230.955 243.174V143.278H279.99V236.474C279.99 242.971 281.005 248.555 283.035 253.225C285.066 257.894 288.111 261.549 292.172 264.189C296.233 266.625 301.106 267.843 306.791 267.843C311.055 267.843 314.913 267.133 318.364 265.712C322.019 264.29 325.065 262.361 327.501 259.925C330.141 257.285 332.171 254.341 333.593 251.093C335.014 247.641 335.724 243.885 335.724 239.824V143.278H384.759V305H338.77L336.638 271.803L345.775 268.148C343.339 275.864 339.278 282.767 333.593 288.858C327.907 294.746 321.106 299.518 313.187 303.173C305.268 306.624 296.842 308.35 287.908 308.35ZM405.043 305V276.98L490.93 166.729V182.871H405.043V143.278H539.05V172.516L457.732 279.417L456.514 265.407H541.791V305H405.043ZM575.538 305V102.467H624.268V305H575.538ZM546.909 185.916V143.278H655.638V185.916H546.909ZM742.302 308.046C724.435 308.046 708.902 304.492 695.704 297.386C682.507 290.076 672.253 280.229 664.944 267.843C657.634 255.255 653.979 240.941 653.979 224.9C653.979 212.515 656.01 201.144 660.071 190.789C664.132 180.434 669.817 171.5 677.126 163.988C684.436 156.272 693.065 150.384 703.014 146.323C713.166 142.06 724.232 139.928 736.211 139.928C747.581 139.928 757.937 141.958 767.276 146.019C776.819 150.08 785.043 155.765 791.946 163.074C798.849 170.384 804.128 179.013 807.783 188.962C811.438 198.911 813.062 209.774 812.656 221.55L812.352 234.646H683.522L676.517 207.236H772.759L767.581 213.022V206.931C767.175 201.855 765.551 197.388 762.708 193.53C760.068 189.47 756.515 186.322 752.048 184.089C747.581 181.856 742.505 180.739 736.82 180.739C728.902 180.739 722.1 182.363 716.415 185.612C710.933 188.657 706.77 193.226 703.928 199.317C701.085 205.205 699.664 212.515 699.664 221.246C699.664 230.179 701.491 237.996 705.146 244.697C709.004 251.194 714.486 256.27 721.592 259.925C728.902 263.58 737.531 265.407 747.48 265.407C754.383 265.407 760.475 264.392 765.754 262.361C771.236 260.331 777.124 256.879 783.418 252.006L806.26 284.29C799.966 289.772 793.266 294.239 786.159 297.691C779.053 301.142 771.743 303.68 764.231 305.305C756.921 307.132 749.612 308.046 742.302 308.046ZM873.854 257.488L855.885 220.941L931.416 143.278H995.679L873.854 257.488ZM826.951 305V79.6244H875.681V305H826.951ZM936.594 305L879.641 231.296L914.056 204.495L994.156 305H936.594Z" fill="#464838"/>
</svg>
