<svg width="61" height="71" viewBox="0 0 61 71" fill="none" xmlns="http://www.w3.org/2000/svg">
<path d="M1 69.6V1H29.616C33.9933 1 37.6847 1.65333 40.69 2.96C43.6953 4.26667 45.9493 6.22667 47.452 8.84C49.02 11.388 49.804 14.524 49.804 18.248C49.804 21.972 48.7587 25.1407 46.668 27.754C44.6427 30.3673 41.8007 32.164 38.142 33.144V31.184C41.2127 31.8373 43.8913 33.0133 46.178 34.712C48.4647 36.3453 50.2287 38.4033 51.47 40.886C52.7767 43.3687 53.43 46.2107 53.43 49.412C53.43 52.6787 52.9073 55.586 51.862 58.134C50.882 60.6167 49.3793 62.7073 47.354 64.406C45.394 66.1047 43.0093 67.4113 40.2 68.326C37.3907 69.1753 34.1893 69.6 30.596 69.6H1ZM11.584 59.408H30.008C32.6867 59.408 34.9407 59.016 36.77 58.232C38.6647 57.448 40.102 56.3047 41.082 54.802C42.1273 53.234 42.65 51.372 42.65 49.216C42.65 47.1907 42.0947 45.4593 40.984 44.022C39.9387 42.5847 38.436 41.5067 36.476 40.788C34.516 40.004 32.1967 39.612 29.518 39.612H11.584V59.408ZM11.584 29.42H29.028C30.988 29.42 32.7193 29.028 34.222 28.244C35.79 27.46 36.9987 26.382 37.848 25.01C38.7627 23.638 39.22 22.07 39.22 20.306C39.22 17.366 38.24 15.112 36.28 13.544C34.32 11.976 31.5107 11.192 27.852 11.192H11.584V29.42Z" fill="white" fill-opacity="0.5"/>
<path fill-rule="evenodd" clip-rule="evenodd" d="M0 70.6V0H29.616C34.0869 0 37.9229 0.666502 41.0887 2.04293C44.268 3.42522 46.6923 5.51912 48.3115 8.32858C49.9923 11.0662 50.804 14.39 50.804 18.248C50.804 22.1691 49.6991 25.563 47.4538 28.3726C46.3539 29.7903 45.034 30.9774 43.503 31.9376C44.6611 32.4937 45.7495 33.1487 46.7667 33.9036C49.1779 35.6276 51.0461 37.8059 52.3597 40.4294C53.7488 43.0726 54.43 46.0753 54.43 49.412C54.43 52.7825 53.891 55.8203 52.7897 58.5075C51.7501 61.1381 50.1523 63.3625 48.003 65.1669C45.9301 66.9618 43.4255 68.3275 40.5096 69.2769L40.4995 69.2802L40.4894 69.2832C37.5679 70.1664 34.2663 70.6 30.596 70.6H0ZM47.354 64.406C49.3793 62.7073 50.882 60.6167 51.862 58.134C52.9073 55.586 53.43 52.6787 53.43 49.412C53.43 46.2107 52.7767 43.3687 51.47 40.886C50.2287 38.4033 48.4647 36.3453 46.178 34.712C45.0307 33.8597 43.7847 33.139 42.44 32.5499C42.0333 32.3717 41.6176 32.2055 41.1929 32.0514C41.6039 31.8614 42.0013 31.6577 42.3849 31.4403C44.0805 30.4793 45.5081 29.2506 46.668 27.754C48.7587 25.1407 49.804 21.972 49.804 18.248C49.804 14.524 49.02 11.388 47.452 8.84C45.9493 6.22667 43.6953 4.26667 40.69 2.96C37.6847 1.65333 33.9933 1 29.616 1H1V69.6H30.596C34.1893 69.6 37.3907 69.1753 40.2 68.326C43.0093 67.4113 45.394 66.1047 47.354 64.406ZM36.3876 57.308C38.1235 56.5897 39.3898 55.5661 40.2444 54.2557L40.2499 54.2473C41.1706 52.8664 41.65 51.2039 41.65 49.216C41.65 47.3851 41.1525 45.8756 40.1927 44.6335L40.1838 44.6219L40.1753 44.6102C39.2658 43.3596 37.9388 42.3895 36.1317 41.7269L36.1181 41.7219L36.1046 41.7165C34.2898 40.9906 32.1023 40.612 29.518 40.612H12.584V58.408H30.008C32.5955 58.408 34.7063 58.0285 36.3761 57.3129L36.3876 57.308ZM11.584 59.408V39.612H29.518C32.1967 39.612 34.516 40.004 36.476 40.788C38.436 41.5067 39.9387 42.5847 40.984 44.022C42.0947 45.4593 42.65 47.1907 42.65 49.216C42.65 51.372 42.1273 53.234 41.082 54.802C40.102 56.3047 38.6647 57.448 36.77 58.232C34.9407 59.016 32.6867 59.408 30.008 59.408H11.584ZM33.7671 27.3534L33.7748 27.3496C35.1918 26.6411 36.2544 25.6844 36.9977 24.4836L37.0066 24.4693L37.016 24.4553C37.8134 23.2592 38.22 21.887 38.22 20.306C38.22 17.6115 37.336 15.6695 35.6553 14.3249C33.9378 12.9509 31.3843 12.192 27.852 12.192H12.584V28.42H29.028C30.8522 28.42 32.4204 28.056 33.7594 27.3574L33.7671 27.3534ZM11.584 29.42V11.192H27.852C31.5107 11.192 34.32 11.976 36.28 13.544C38.24 15.112 39.22 17.366 39.22 20.306C39.22 22.07 38.7627 23.638 37.848 25.01C36.9987 26.382 35.79 27.46 34.222 28.244C32.7193 29.028 30.988 29.42 29.028 29.42H11.584Z" fill="#edda33"/>
<path d="M7 69.6V1H35.616C39.9933 1 43.6847 1.65333 46.69 2.96C49.6953 4.26667 51.9493 6.22667 53.452 8.84C55.02 11.388 55.804 14.524 55.804 18.248C55.804 21.972 54.7587 25.1407 52.668 27.754C50.6427 30.3673 47.8007 32.164 44.142 33.144V31.184C47.2127 31.8373 49.8913 33.0133 52.178 34.712C54.4647 36.3453 56.2287 38.4033 57.47 40.886C58.7767 43.3687 59.43 46.2107 59.43 49.412C59.43 52.6787 58.9073 55.586 57.862 58.134C56.882 60.6167 55.3793 62.7073 53.354 64.406C51.394 66.1047 49.0093 67.4113 46.2 68.326C43.3907 69.1753 40.1893 69.6 36.596 69.6H7ZM17.584 59.408H36.008C38.6867 59.408 40.9407 59.016 42.77 58.232C44.6647 57.448 46.102 56.3047 47.082 54.802C48.1273 53.234 48.65 51.372 48.65 49.216C48.65 47.1907 48.0947 45.4593 46.984 44.022C45.9387 42.5847 44.436 41.5067 42.476 40.788C40.516 40.004 38.1967 39.612 35.518 39.612H17.584V59.408ZM17.584 29.42H35.028C36.988 29.42 38.7193 29.028 40.222 28.244C41.79 27.46 42.9987 26.382 43.848 25.01C44.7627 23.638 45.22 22.07 45.22 20.306C45.22 17.366 44.24 15.112 42.28 13.544C40.32 11.976 37.5107 11.192 33.852 11.192H17.584V29.42Z" fill="white" fill-opacity="0.5"/>
<path fill-rule="evenodd" clip-rule="evenodd" d="M6 70.6V0H35.616C40.0869 0 43.9229 0.666502 47.0887 2.04293C50.268 3.42522 52.6923 5.51912 54.3115 8.32858C55.9923 11.0662 56.804 14.39 56.804 18.248C56.804 22.1691 55.6991 25.563 53.4538 28.3726C52.3539 29.7903 51.034 30.9774 49.503 31.9376C50.6611 32.4937 51.7495 33.1487 52.7667 33.9036C55.1779 35.6276 57.0461 37.8059 58.3597 40.4294C59.7488 43.0726 60.43 46.0753 60.43 49.412C60.43 52.7825 59.891 55.8203 58.7897 58.5075C57.7501 61.1381 56.1523 63.3625 54.003 65.1669C51.9301 66.9618 49.4255 68.3275 46.5096 69.2769L46.4995 69.2802L46.4894 69.2832C43.5679 70.1664 40.2663 70.6 36.596 70.6H6ZM53.354 64.406C55.3793 62.7073 56.882 60.6167 57.862 58.134C58.9073 55.586 59.43 52.6787 59.43 49.412C59.43 46.2107 58.7767 43.3687 57.47 40.886C56.2287 38.4033 54.4647 36.3453 52.178 34.712C51.0307 33.8597 49.7847 33.139 48.44 32.5499C48.0333 32.3717 47.6176 32.2055 47.1929 32.0514C47.6039 31.8614 48.0013 31.6577 48.3849 31.4403C50.0805 30.4793 51.5081 29.2506 52.668 27.754C54.7587 25.1407 55.804 21.972 55.804 18.248C55.804 14.524 55.02 11.388 53.452 8.84C51.9493 6.22667 49.6953 4.26667 46.69 2.96C43.6847 1.65333 39.9933 1 35.616 1H7V69.6H36.596C40.1893 69.6 43.3907 69.1753 46.2 68.326C49.0093 67.4113 51.394 66.1047 53.354 64.406ZM42.3876 57.308C44.1235 56.5897 45.3898 55.5661 46.2444 54.2557L46.2499 54.2473C47.1706 52.8664 47.65 51.2039 47.65 49.216C47.65 47.3851 47.1525 45.8756 46.1927 44.6335L46.1838 44.6219L46.1753 44.6102C45.2658 43.3596 43.9388 42.3895 42.1317 41.7269L42.1181 41.7219L42.1046 41.7165C40.2898 40.9906 38.1023 40.612 35.518 40.612H18.584V58.408H36.008C38.5955 58.408 40.7063 58.0285 42.3761 57.3129L42.3876 57.308ZM17.584 59.408V39.612H35.518C38.1967 39.612 40.516 40.004 42.476 40.788C44.436 41.5067 45.9387 42.5847 46.984 44.022C48.0947 45.4593 48.65 47.1907 48.65 49.216C48.65 51.372 48.1273 53.234 47.082 54.802C46.102 56.3047 44.6647 57.448 42.77 58.232C40.9407 59.016 38.6867 59.408 36.008 59.408H17.584ZM39.7671 27.3534L39.7748 27.3496C41.1918 26.6411 42.2544 25.6844 42.9977 24.4836L43.0066 24.4693L43.016 24.4553C43.8134 23.2592 44.22 21.887 44.22 20.306C44.22 17.6115 43.336 15.6695 41.6553 14.3249C39.9378 12.9509 37.3843 12.192 33.852 12.192H18.584V28.42H35.028C36.8522 28.42 38.4204 28.056 39.7594 27.3574L39.7671 27.3534ZM17.584 29.42V11.192H33.852C37.5107 11.192 40.32 11.976 42.28 13.544C44.24 15.112 45.22 17.366 45.22 20.306C45.22 22.07 44.7627 23.638 43.848 25.01C42.9987 26.382 41.79 27.46 40.222 28.244C38.7193 29.028 36.988 29.42 35.028 29.42H17.584Z" fill="#edda33"/>
<path d="M4 69.6V1H32.616C36.9933 1 40.6847 1.65333 43.69 2.96C46.6953 4.26667 48.9493 6.22667 50.452 8.84C52.02 11.388 52.804 14.524 52.804 18.248C52.804 21.972 51.7587 25.1407 49.668 27.754C47.6427 30.3673 44.8007 32.164 41.142 33.144V31.184C44.2127 31.8373 46.8913 33.0133 49.178 34.712C51.4647 36.3453 53.2287 38.4033 54.47 40.886C55.7767 43.3687 56.43 46.2107 56.43 49.412C56.43 52.6787 55.9073 55.586 54.862 58.134C53.882 60.6167 52.3793 62.7073 50.354 64.406C48.394 66.1047 46.0093 67.4113 43.2 68.326C40.3907 69.1753 37.1893 69.6 33.596 69.6H4ZM14.584 59.408H33.008C35.6867 59.408 37.9407 59.016 39.77 58.232C41.6647 57.448 43.102 56.3047 44.082 54.802C45.1273 53.234 45.65 51.372 45.65 49.216C45.65 47.1907 45.0947 45.4593 43.984 44.022C42.9387 42.5847 41.436 41.5067 39.476 40.788C37.516 40.004 35.1967 39.612 32.518 39.612H14.584V59.408ZM14.584 29.42H32.028C33.988 29.42 35.7193 29.028 37.222 28.244C38.79 27.46 39.9987 26.382 40.848 25.01C41.7627 23.638 42.22 22.07 42.22 20.306C42.22 17.366 41.24 15.112 39.28 13.544C37.32 11.976 34.5107 11.192 30.852 11.192H14.584V29.42Z" fill="white" fill-opacity="0.5"/>
<path fill-rule="evenodd" clip-rule="evenodd" d="M3 70.6V0H32.616C37.0869 0 40.9229 0.666502 44.0887 2.04293C47.268 3.42522 49.6923 5.51912 51.3115 8.32858C52.9923 11.0662 53.804 14.39 53.804 18.248C53.804 22.1691 52.6991 25.563 50.4538 28.3726C49.3539 29.7903 48.034 30.9774 46.503 31.9376C47.6611 32.4937 48.7495 33.1487 49.7667 33.9036C52.1779 35.6276 54.0461 37.8059 55.3597 40.4294C56.7488 43.0726 57.43 46.0753 57.43 49.412C57.43 52.7825 56.891 55.8203 55.7897 58.5075C54.7501 61.1381 53.1523 63.3625 51.003 65.1669C48.9301 66.9618 46.4255 68.3275 43.5096 69.2769L43.4995 69.2802L43.4894 69.2832C40.5679 70.1664 37.2663 70.6 33.596 70.6H3ZM50.354 64.406C52.3793 62.7073 53.882 60.6167 54.862 58.134C55.9073 55.586 56.43 52.6787 56.43 49.412C56.43 46.2107 55.7767 43.3687 54.47 40.886C53.2287 38.4033 51.4647 36.3453 49.178 34.712C48.0307 33.8597 46.7847 33.139 45.44 32.5499C45.0333 32.3717 44.6176 32.2055 44.1929 32.0514C44.6039 31.8614 45.0013 31.6577 45.3849 31.4403C47.0805 30.4793 48.5081 29.2506 49.668 27.754C51.7587 25.1407 52.804 21.972 52.804 18.248C52.804 14.524 52.02 11.388 50.452 8.84C48.9493 6.22667 46.6953 4.26667 43.69 2.96C40.6847 1.65333 36.9933 1 32.616 1H4V69.6H33.596C37.1893 69.6 40.3907 69.1753 43.2 68.326C46.0093 67.4113 48.394 66.1047 50.354 64.406ZM39.3876 57.308C41.1235 56.5897 42.3898 55.5661 43.2444 54.2557L43.2499 54.2473C44.1706 52.8664 44.65 51.2039 44.65 49.216C44.65 47.3851 44.1525 45.8756 43.1927 44.6335L43.1838 44.6219L43.1753 44.6102C42.2658 43.3596 40.9388 42.3895 39.1317 41.7269L39.1181 41.7219L39.1046 41.7165C37.2898 40.9906 35.1023 40.612 32.518 40.612H15.584V58.408H33.008C35.5955 58.408 37.7063 58.0285 39.3761 57.3129L39.3876 57.308ZM14.584 59.408V39.612H32.518C35.1967 39.612 37.516 40.004 39.476 40.788C41.436 41.5067 42.9387 42.5847 43.984 44.022C45.0947 45.4593 45.65 47.1907 45.65 49.216C45.65 51.372 45.1273 53.234 44.082 54.802C43.102 56.3047 41.6647 57.448 39.77 58.232C37.9407 59.016 35.6867 59.408 33.008 59.408H14.584ZM36.7671 27.3534L36.7748 27.3496C38.1918 26.6411 39.2544 25.6844 39.9977 24.4836L40.0066 24.4693L40.016 24.4553C40.8134 23.2592 41.22 21.887 41.22 20.306C41.22 17.6115 40.336 15.6695 38.6553 14.3249C36.9378 12.9509 34.3843 12.192 30.852 12.192H15.584V28.42H32.028C33.8522 28.42 35.4204 28.056 36.7594 27.3574L36.7671 27.3534ZM14.584 29.42V11.192H30.852C34.5107 11.192 37.32 11.976 39.28 13.544C41.24 15.112 42.22 17.366 42.22 20.306C42.22 22.07 41.7627 23.638 40.848 25.01C39.9987 26.382 38.79 27.46 37.222 28.244C35.7193 29.028 33.988 29.42 32.028 29.42H14.584Z" fill="#edda33"/>
</svg>
